<svg xmlns="http://www.w3.org/2000/svg" width="281.603" height="281.263" viewBox="0 0 281.603 281.263">
  <g id="logo" transform="translate(0.046 0.013)">
    <g id="SvgjsG1025" transform="translate(50.281 -88.909)">
      <path id="Path_1" data-name="Path 1" d="M34.49,240v6.57h6.69V233.43H36.21V197.04H20.93c-8.66,0-14.42,5.46-14.42,14.3v18.1c0,3.2-1.78,3.87-3.26,3.99H1.04v13.14H7.73V240Zm-20.8-10.56v-18.1c0-4.79,2.88-7.36,7.48-7.36h7.67v29.45H12.46A7.573,7.573,0,0,0,13.69,229.44ZM48.79,240h7.36l21.36-31.73V240h7.3V197.04H77.45L56.03,228.22V197.04H48.79Zm92.06-43.02h-7.31l-15.65,33.45-16.32-33.45h-7.3V240h7.18V213.06L114.58,240h6.75l12.34-26.39V240h7.18ZM172.27,240H180l-17.18-44.19L145.69,240h7.74l1.84-4.97h15.09Zm-9.45-26.08,5.21,14.91H157.6Z" fill="#000001"/>
    </g>
    <g id="SvgjsG1026" transform="translate(65.576 -60.719)">
      <path id="Path_2" data-name="Path 2" d="M11.24,228.73a6.2,6.2,0,0,0-4.33-1.57c-3.53,0-6.27,2.81-6.27,6.8a5.939,5.939,0,0,0,6.12,6.29,7.22,7.22,0,0,0,4.63-1.76l-.46-1.95a5.367,5.367,0,0,1-3.81,1.78c-2.04,0-3.93-1.61-3.93-4.55,0-2.53,1.61-4.74,3.74-4.74a4.558,4.558,0,0,1,3.31,1.51Zm4.19,9.85a16.655,16.655,0,0,0,.94-5.76v-.69h2.42v6.45Zm4.64,1.67v2.83h2.29v-4.5H21.13v-8.12H13.79l.24,1.91-.02.45a14.368,14.368,0,0,1-1.07,5.76H11.82v4.5h2.29v-2.83Zm7.88-10.07c-3.15,0-4.5,2.53-4.5,5.29,0,2.43,1.5,4.78,4.31,4.78a6.325,6.325,0,0,0,3.97-1.35l-.34-1.92a5.667,5.667,0,0,1-3.18,1.34c-1.49,0-2.26-1.21-2.36-2.74h5.23l.46-.45C31.5,233.71,31.25,230.18,27.95,230.18Zm-.23,1.61c1,0,1.32,1.22,1.38,2.13H25.95C26.16,232.73,26.68,231.79,27.72,231.79Zm6.97,1.83c-.11,3.02-.58,4.68-1.47,4.68a1.857,1.857,0,0,1-.83-.21l.22,1.93a3.441,3.441,0,0,0,1.23.23c2.42,0,3.12-3.23,3.21-6.71l.04-1.34H39.6V240h2.55l-.21-1.62v-7.92h-7.4l.21,1.63Zm10.82-.34a3.779,3.779,0,0,1,2.59-1.42c.79,0,1.28.57,1.28,1.89v.36c-3.36.11-5.32,1.68-5.32,3.66a2.613,2.613,0,0,0,2.75,2.48,4.221,4.221,0,0,0,2.86-1.21,3.3,3.3,0,0,0,.64,1.17l2.38-.27a4.172,4.172,0,0,1-.97-2.26v-4.89c0-1.97-1.66-2.61-3.22-2.61a5.748,5.748,0,0,0-3.95,1.44Zm2.08,5.23a1.024,1.024,0,0,1-1.12-1.04c0-1.42,1.99-1.62,2.91-1.7v1.93A2.984,2.984,0,0,1,47.59,238.51Zm19.83-3.5c0-3.05-1.87-4.83-4.23-4.83a4.519,4.519,0,0,0-4.84,4.23H57.11v-3.95H54.56l.21,1.63V240h2.54l-.2-1.62v-2.31h1.22c.27,2.15,1.72,4.18,4.22,4.18C65.59,240.25,67.42,237.83,67.42,235.01Zm-6.63.19c0-1.89.79-3.34,2.06-3.34,1.24,0,2.06,1.45,2.06,3.34s-.82,3.36-2.06,3.36S60.79,237.09,60.79,235.2Zm16.67-3.13c1.16-.04,1.69.36,1.69,1a1.4,1.4,0,0,1-.55,1.09H76.43v-2.05Zm-1.03,3.7h1.19c1.32,0,1.94.42,1.94,1.3,0,.74-.49,1.27-1.72,1.27H76.43Zm-2.44-5.27.21,1.63V240h3.47c3.19,0,4.21-1.23,4.21-3a2.581,2.581,0,0,0-1.89-2.4,2.06,2.06,0,0,0,1.33-1.81c0-1.48-1.19-2.46-3.76-2.38Zm10.56,2.78a3.746,3.746,0,0,1,2.58-1.42c.8,0,1.29.57,1.29,1.89v.36c-3.36.11-5.33,1.68-5.33,3.66a2.623,2.623,0,0,0,2.76,2.48,4.2,4.2,0,0,0,2.85-1.21,3.3,3.3,0,0,0,.64,1.17l2.38-.27a4.191,4.191,0,0,1-.96-2.26v-4.89c0-1.97-1.66-2.61-3.23-2.61a5.748,5.748,0,0,0-3.95,1.44Zm2.07,5.23a1.021,1.021,0,0,1-1.11-1.04c0-1.42,1.98-1.62,2.91-1.7v1.93A3.01,3.01,0,0,1,86.62,238.51Zm9.92-2.99,2.75,3.59,2.4-3.42.59-1.11V240h2.55l-.21-1.62v-7.92h-1.68l-3.61,5.22-3.98-5.22H93.59l.21,1.63V240h2.45l-.2-1.62v-3.84Zm23.09-4.07a4.733,4.733,0,0,0-3.45-1.27c-3.04,0-4.69,2.46-4.69,5.21,0,2.44,1.4,4.86,4.22,4.86a5.668,5.668,0,0,0,3.89-1.48l-.34-1.96a5.116,5.116,0,0,1-3.1,1.51c-1.55,0-2.27-1.51-2.27-3.1,0-1.7.72-3.25,2.34-3.25a3.06,3.06,0,0,1,2.33,1.17Zm2.52,1.83a3.746,3.746,0,0,1,2.58-1.42c.8,0,1.29.57,1.29,1.89v.36c-3.36.11-5.33,1.68-5.33,3.66a2.622,2.622,0,0,0,2.76,2.48,4.2,4.2,0,0,0,2.85-1.21,3.3,3.3,0,0,0,.64,1.17l2.38-.27a4.191,4.191,0,0,1-.96-2.26v-4.89c0-1.97-1.66-2.61-3.23-2.61a5.748,5.748,0,0,0-3.95,1.44Zm2.07,5.23a1.021,1.021,0,0,1-1.11-1.04c0-1.42,1.98-1.62,2.91-1.7v1.93A3.01,3.01,0,0,1,124.22,238.51Zm11.37-10.48c-.89,0-1.32-1.65-1.32-1.65l-1.7.57s.62,2.72,3.02,2.72,3.02-2.72,3.02-2.72l-1.7-.57S136.48,228.03,135.59,228.03Zm-1.79,2.17-2.61.28.27,1.91V240h2.09l3.44-5.1.4-.85V240h2.54l-.2-1.62v-7.92h-2.1l-3.44,5.1-.39.85Zm7.59.26v1.67h3.04V240h2.55l-.21-1.62v-6.25h3.04v-1.67Z" fill="#000001"/>
    </g>
    <g id="SvgjsG1027" transform="translate(0.028 0.008)">
      <g id="Group_1" data-name="Group 1">
        <path id="Path_3" data-name="Path 3" d="M565.292,753.272a2.091,2.091,0,1,0,3.276,2.6C570.414,753.688,567.06,750.1,565.292,753.272Z" transform="translate(-533.312 -533.468)" fill="#000001" fill-rule="evenodd"/>
        <path id="Path_4" data-name="Path 4" d="M589.654,775.086a1.274,1.274,0,0,0,0,1.144,1.638,1.638,0,0,0,2.6,0,1.378,1.378,0,0,0,0-1.508,1.508,1.508,0,0,0-1.352-.624A1.586,1.586,0,0,0,589.654,775.086Z" transform="translate(-533.312 -533.468)" fill="#000001" fill-rule="evenodd"/>
        <path id="Path_5" data-name="Path 5" d="M551.2,734.162a.993.993,0,0,0,1.352,1.456C553.8,734.682,552.63,732.68,551.2,734.162Z" transform="translate(-533.312 -533.468)" fill="#000001" fill-rule="evenodd"/>
        <path id="Path_6" data-name="Path 6" d="M585.468,771.706A1.17,1.17,0,0,0,587.5,772.8C588.328,771.446,586.118,769.782,585.468,771.706Z" transform="translate(-533.312 -533.468)" fill="#000001" fill-rule="evenodd"/>
        <path id="Path_7" data-name="Path 7" d="M581.178,768.274a1.326,1.326,0,0,0,2.262,1.3C584.428,768.118,581.984,766.116,581.178,768.274Z" transform="translate(-533.312 -533.468)" fill="#000001" fill-rule="evenodd"/>
        <path id="Path_8" data-name="Path 8" d="M574.418,760.656a2.392,2.392,0,0,0-3.9-2.6C568.412,760.448,572.676,764.4,574.418,760.656Z" transform="translate(-533.312 -533.468)" fill="#000001" fill-rule="evenodd"/>
        <path id="Path_9" data-name="Path 9" d="M579.332,765.362a1.924,1.924,0,0,0-3.224-2.028C574.6,765.414,578.084,768.508,579.332,765.362Z" transform="translate(-533.312 -533.468)" fill="#000001" fill-rule="evenodd"/>
        <path id="Path_10" data-name="Path 10" d="M600.73,782.6a1.508,1.508,0,0,0,2.756,1.092C604.37,781.846,601.328,780,600.73,782.6Z" transform="translate(-533.312 -533.468)" fill="#000001" fill-rule="evenodd"/>
        <path id="Path_11" data-name="Path 11" d="M595.01,778a2.6,2.6,0,0,0-.364,1.248,1.924,1.924,0,0,0,2.262,1.768,2,2,0,0,0,1.3-2.6,2.158,2.158,0,0,0-1.144-.858,1.976,1.976,0,0,0-1.742,0,1.379,1.379,0,0,0-.312.442Z" transform="translate(-533.312 -533.468)" fill="#000001" fill-rule="evenodd"/>
        <path id="Path_12" data-name="Path 12" d="M557.856,743.886a1.4,1.4,0,0,0,2.054,1.9C561.288,744.484,559.208,741.832,557.856,743.886Z" transform="translate(-533.312 -533.468)" fill="#000001" fill-rule="evenodd"/>
        <path id="Path_13" data-name="Path 13" d="M561.886,748.072a1.534,1.534,0,0,0,.78,2.808C565.162,750.776,564.2,746.2,561.886,748.072Z" transform="translate(-533.312 -533.468)" fill="#000001" fill-rule="evenodd"/>
        <path id="Path_14" data-name="Path 14" d="M556.4,739.1a1.274,1.274,0,0,0-2.314.65C554.216,741.858,558.064,741,556.4,739.1Z" transform="translate(-533.312 -533.468)" fill="#000001" fill-rule="evenodd"/>
        <path id="Path_15" data-name="Path 15" d="M627.926,796.562a2.08,2.08,0,0,0,4.03.806C632.684,794.69,628.082,793,627.926,796.562Z" transform="translate(-533.312 -533.468)" fill="#000001" fill-rule="evenodd"/>
        <path id="Path_16" data-name="Path 16" d="M659.412,805.428a1.274,1.274,0,0,0,.624.962,1.638,1.638,0,0,0,2.34-1.2,1.378,1.378,0,0,0-.676-1.352,1.482,1.482,0,0,0-1.482,0A1.586,1.586,0,0,0,659.412,805.428Z" transform="translate(-533.312 -533.468)" fill="#000001" fill-rule="evenodd"/>
        <path id="Path_17" data-name="Path 17" d="M606.736,786.006a.988.988,0,0,0,1.872.624C609.284,785.2,607.178,784.056,606.736,786.006Z" transform="translate(-533.312 -533.468)" fill="#000001" fill-rule="evenodd"/>
        <path id="Path_18" data-name="Path 18" d="M654.134,804.284a1.17,1.17,0,0,0,2.288,0C656.578,802.776,653.874,802.282,654.134,804.284Z" transform="translate(-533.312 -533.468)" fill="#000001" fill-rule="evenodd"/>
        <path id="Path_19" data-name="Path 19" d="M648.778,803.088a1.326,1.326,0,0,0,2.6.182C651.612,801.5,648.57,800.8,648.778,803.088Z" transform="translate(-533.312 -533.468)" fill="#000001" fill-rule="evenodd"/>
        <path id="Path_20" data-name="Path 20" d="M639.366,799.214a2.418,2.418,0,0,0-4.68-.728C633.88,801.658,639.6,803.4,639.366,799.214Z" transform="translate(-533.312 -533.468)" fill="#000001" fill-rule="evenodd"/>
        <path id="Path_21" data-name="Path 21" d="M645.84,801.294a1.95,1.95,0,0,0-3.8-.416C641.524,803.4,646.1,804.674,645.84,801.294Z" transform="translate(-533.312 -533.468)" fill="#000001" fill-rule="evenodd"/>
        <path id="Path_22" data-name="Path 22" d="M672.672,806.962a1.508,1.508,0,0,0,2.938-.338C675.506,804.622,671.97,804.466,672.672,806.962Z" transform="translate(-533.312 -533.468)" fill="#000001" fill-rule="evenodd"/>
        <path id="Path_23" data-name="Path 23" d="M665.6,805.61a2.6,2.6,0,0,0,.26,1.274,1.924,1.924,0,0,0,2.834.52,2,2,0,0,0,0-2.886,2.08,2.08,0,0,0-1.4-.234,1.976,1.976,0,0,0-1.508.858A1.456,1.456,0,0,0,665.6,805.61Z" transform="translate(-533.312 -533.468)" fill="#000001" fill-rule="evenodd"/>
        <path id="Path_24" data-name="Path 24" d="M617.058,791.518a1.43,1.43,0,0,0,2.6.754C620.386,790.4,617.344,789.074,617.058,791.518Z" transform="translate(-533.312 -533.468)" fill="#000001" fill-rule="evenodd"/>
        <path id="Path_25" data-name="Path 25" d="M622.544,793.468a1.534,1.534,0,0,0,1.95,2.184C626.6,794.378,623.766,790.66,622.544,793.468Z" transform="translate(-533.312 -533.468)" fill="#000001" fill-rule="evenodd"/>
        <path id="Path_26" data-name="Path 26" d="M613.6,787.8a1.274,1.274,0,0,0-1.742,1.664C612.9,791.388,615.914,788.84,613.6,787.8Z" transform="translate(-533.312 -533.468)" fill="#000001" fill-rule="evenodd"/>
        <path id="Path_27" data-name="Path 27" d="M703.2,805.09a2.08,2.08,0,0,0,3.822-1.56C706.108,800.8,701.35,801.97,703.2,805.09Z" transform="translate(-533.312 -533.468)" fill="#000001" fill-rule="evenodd"/>
        <path id="Path_28" data-name="Path 28" d="M733.928,793.884a1.248,1.248,0,0,0,1.092.39,1.638,1.638,0,0,0,1.144-2.366,1.378,1.378,0,0,0-1.352-.65,1.482,1.482,0,0,0-1.144.936A1.586,1.586,0,0,0,733.928,793.884Z" transform="translate(-533.312 -533.468)" fill="#000001" fill-rule="evenodd"/>
        <path id="Path_29" data-name="Path 29" d="M679.614,807.092a.994.994,0,0,0,1.95-.39C681.408,805.168,679.042,805.194,679.614,807.092Z" transform="translate(-533.312 -533.468)" fill="#000001" fill-rule="evenodd"/>
        <path id="Path_30" data-name="Path 30" d="M729.04,796.146a1.17,1.17,0,0,0,1.872-1.326C730.08,793.494,727.61,794.716,729.04,796.146Z" transform="translate(-533.312 -533.468)" fill="#000001" fill-rule="evenodd"/>
        <path id="Path_31" data-name="Path 31" d="M724.022,798.434a1.326,1.326,0,0,0,2.21-1.43C725.4,795.444,722.488,796.692,724.022,798.434Z" transform="translate(-533.312 -533.468)" fill="#000001" fill-rule="evenodd"/>
        <path id="Path_32" data-name="Path 32" d="M714.142,800.8a2.392,2.392,0,0,0-4.238,2.08C711.022,806,716.69,804.206,714.142,800.8Z" transform="translate(-533.312 -533.468)" fill="#000001" fill-rule="evenodd"/>
        <path id="Path_33" data-name="Path 33" d="M720.59,798.72a1.924,1.924,0,0,0-3.3,1.9C718.354,803.01,722.8,801.32,720.59,798.72Z" transform="translate(-533.312 -533.468)" fill="#000001" fill-rule="evenodd"/>
        <path id="Path_34" data-name="Path 34" d="M745.394,787.046a1.508,1.508,0,0,0,2.132-2.054C746.2,783.432,743.34,785.46,745.394,787.046Z" transform="translate(-533.312 -533.468)" fill="#000001" fill-rule="evenodd"/>
        <path id="Path_35" data-name="Path 35" d="M738.894,790.4a2.6,2.6,0,0,0,.988.858,1.924,1.924,0,0,0,2.6-1.3,2,2,0,0,0-1.794-2.262,2.106,2.106,0,0,0-1.274.676,1.976,1.976,0,0,0-.676,1.586,1.481,1.481,0,0,0,.156.442Z" transform="translate(-533.312 -533.468)" fill="#000001" fill-rule="evenodd"/>
        <path id="Path_36" data-name="Path 36" d="M691.314,806.65a1.43,1.43,0,0,0,2.6-.754C693.6,804.05,690.274,804.414,691.314,806.65Z" transform="translate(-533.312 -533.468)" fill="#000001" fill-rule="evenodd"/>
        <path id="Path_37" data-name="Path 37" d="M696.982,805.4a1.534,1.534,0,0,0,2.808.78C700.986,803.946,696.514,802.386,696.982,805.4Z" transform="translate(-533.312 -533.468)" fill="#000001" fill-rule="evenodd"/>
        <path id="Path_38" data-name="Path 38" d="M686.4,805.35a1.274,1.274,0,0,0-.65,2.314C687.674,808.6,689,804.96,686.4,805.35Z" transform="translate(-533.312 -533.468)" fill="#000001" fill-rule="evenodd"/>
        <path id="Path_39" data-name="Path 39" d="M769.106,767.676a2.08,2.08,0,0,0,2.288-3.432C769.132,762.554,765.83,766.142,769.106,767.676Z" transform="translate(-533.312 -533.468)" fill="#000001" fill-rule="evenodd"/>
        <path id="Path_40" data-name="Path 40" d="M788.424,741.312a1.248,1.248,0,0,0,1.118-.286,1.638,1.638,0,0,0-.338-2.6,1.378,1.378,0,0,0-1.482.208,1.456,1.456,0,0,0-.416,1.4A1.586,1.586,0,0,0,788.424,741.312Z" transform="translate(-533.312 -533.468)" fill="#000001" fill-rule="evenodd"/>
        <path id="Path_41" data-name="Path 41" d="M751.01,782.964a.994.994,0,0,0,1.326-1.482C751.4,780.338,749.424,781.768,751.01,782.964Z" transform="translate(-533.312 -533.468)" fill="#000001" fill-rule="evenodd"/>
        <path id="Path_42" data-name="Path 42" d="M785.59,745.914a1.17,1.17,0,0,0,.832-2.132C785.018,743.106,783.614,745.472,785.59,745.914Z" transform="translate(-533.312 -533.468)" fill="#000001" fill-rule="evenodd"/>
        <path id="Path_43" data-name="Path 43" d="M782.6,750.568a1.326,1.326,0,0,0,1.04-2.418C782.158,747.344,780.442,749.97,782.6,750.568Z" transform="translate(-533.312 -533.468)" fill="#000001" fill-rule="evenodd"/>
        <path id="Path_44" data-name="Path 44" d="M775.762,758.03a2.392,2.392,0,0,0-2.366,4.108C776.048,764.036,779.74,759.408,775.762,758.03Z" transform="translate(-533.312 -533.468)" fill="#000001" fill-rule="evenodd"/>
        <path id="Path_45" data-name="Path 45" d="M780,752.7a1.924,1.924,0,0,0-1.716,3.406C780.468,757.51,783.224,753.636,780,752.7Z" transform="translate(-533.312 -533.468)" fill="#000001" fill-rule="evenodd"/>
        <path id="Path_46" data-name="Path 46" d="M794.2,729.248a1.508,1.508,0,0,0,.624-2.886C793,725.816,791.6,729.092,794.2,729.248Z" transform="translate(-533.312 -533.468)" fill="#000001" fill-rule="evenodd"/>
        <path id="Path_47" data-name="Path 47" d="M790.582,735.592a2.6,2.6,0,0,0,1.274.156,1.924,1.924,0,0,0,1.4-2.6,2,2,0,0,0-2.756-.884,2.08,2.08,0,0,0-.676,1.248,1.976,1.976,0,0,0,.312,1.69,1.4,1.4,0,0,0,.442.39Z" transform="translate(-533.312 -533.468)" fill="#000001" fill-rule="evenodd"/>
        <path id="Path_48" data-name="Path 48" d="M760.214,775.736a1.43,1.43,0,0,0,1.768-2.184C760.578,772.2,758.056,774.488,760.214,775.736Z" transform="translate(-533.312 -533.468)" fill="#000001" fill-rule="evenodd"/>
        <path id="Path_49" data-name="Path 49" d="M764.14,771.446a1.534,1.534,0,0,0,2.782-.936C766.61,767.988,762.034,769.21,764.14,771.446Z" transform="translate(-533.312 -533.468)" fill="#000001" fill-rule="evenodd"/>
        <path id="Path_50" data-name="Path 50" d="M755.534,777.4a1.274,1.274,0,0,0,.832,2.262C758.446,779.506,757.3,775.736,755.534,777.4Z" transform="translate(-533.312 -533.468)" fill="#000001" fill-rule="evenodd"/>
        <path id="Path_51" data-name="Path 51" d="M802.672,699.868a2.08,2.08,0,0,0,0-4.134C799.76,695.656,799.11,700.492,802.672,699.868Z" transform="translate(-533.312 -533.468)" fill="#000001" fill-rule="evenodd"/>
        <path id="Path_52" data-name="Path 52" d="M803.764,667.186a1.274,1.274,0,0,0,.78-.832,1.612,1.612,0,0,0-1.716-1.976,1.378,1.378,0,0,0-1.144.988,1.482,1.482,0,0,0,.416,1.43A1.586,1.586,0,0,0,803.764,667.186Z" transform="translate(-533.312 -533.468)" fill="#000001" fill-rule="evenodd"/>
        <path id="Path_53" data-name="Path 53" d="M796.588,722.8a1,1,0,1,0,.286-1.976C795.34,720.408,794.586,722.644,796.588,722.8Z" transform="translate(-533.312 -533.468)" fill="#000001" fill-rule="evenodd"/>
        <path id="Path_54" data-name="Path 54" d="M803.92,672.568a1.17,1.17,0,0,0-.494-2.236C801.892,670.566,802.048,673.4,803.92,672.568Z" transform="translate(-533.312 -533.468)" fill="#000001" fill-rule="evenodd"/>
        <path id="Path_55" data-name="Path 55" d="M804.1,678.054a1.326,1.326,0,0,0-.468-2.6C801.866,675.688,801.918,678.834,804.1,678.054Z" transform="translate(-533.312 -533.468)" fill="#000001" fill-rule="evenodd"/>
        <path id="Path_56" data-name="Path 56" d="M802.62,688.116a2.392,2.392,0,0,0,.39,4.732C806.286,692.874,806.7,687,802.62,688.116Z" transform="translate(-533.312 -533.468)" fill="#000001" fill-rule="evenodd"/>
        <path id="Path_57" data-name="Path 57" d="M803.062,681.33a1.924,1.924,0,0,0,.52,3.77C806.208,685.022,806.286,680.264,803.062,681.33Z" transform="translate(-533.312 -533.468)" fill="#000001" fill-rule="evenodd"/>
        <path id="Path_58" data-name="Path 58" d="M802.048,653.926a1.508,1.508,0,0,0-1.014-2.782C799.084,651.716,799.76,655.2,802.048,653.926Z" transform="translate(-533.312 -533.468)" fill="#000001" fill-rule="evenodd"/>
        <path id="Path_59" data-name="Path 59" d="M802.438,661.206a2.6,2.6,0,0,0,1.17-.546,1.924,1.924,0,0,0-.208-2.86,2,2,0,0,0-2.782.754,2.08,2.08,0,0,0,0,1.43,2,2,0,0,0,1.2,1.248,1.455,1.455,0,0,0,.624-.026Z" transform="translate(-533.312 -533.468)" fill="#000001" fill-rule="evenodd"/>
        <path id="Path_60" data-name="Path 60" d="M800.046,711.568a1.43,1.43,0,0,0,.182-2.782C798.356,708.526,797.6,711.776,800.046,711.568Z" transform="translate(-533.312 -533.468)" fill="#000001" fill-rule="evenodd"/>
        <path id="Path_61" data-name="Path 61" d="M800.8,705.8a1.534,1.534,0,0,0,1.716-2.366C800.8,701.558,797.81,705.2,800.8,705.8Z" transform="translate(-533.312 -533.468)" fill="#000001" fill-rule="evenodd"/>
        <path id="Path_62" data-name="Path 62" d="M797.212,715.65a1.274,1.274,0,0,0,1.976,1.4C800.8,715.676,797.654,713.232,797.212,715.65Z" transform="translate(-533.312 -533.468)" fill="#000001" fill-rule="evenodd"/>
        <path id="Path_63" data-name="Path 63" d="M793.91,624.442a2.08,2.08,0,0,0-2.184-3.484C789.256,622.258,791.18,626.808,793.91,624.442Z" transform="translate(-533.312 -533.468)" fill="#000001" fill-rule="evenodd"/>
        <path id="Path_64" data-name="Path 64" d="M778.31,595.686a1.274,1.274,0,0,0,.208-1.118,1.638,1.638,0,0,0-2.6-.754,1.4,1.4,0,0,0-.442,1.43,1.456,1.456,0,0,0,1.118.988,1.56,1.56,0,0,0,1.716-.546Z" transform="translate(-533.312 -533.468)" fill="#000001" fill-rule="evenodd"/>
        <path id="Path_65" data-name="Path 65" d="M800.592,647.14a1,1,0,1,0-.806-1.82C798.2,645.814,798.85,648.128,800.592,647.14Z" transform="translate(-533.312 -533.468)" fill="#000001" fill-rule="evenodd"/>
        <path id="Path_66" data-name="Path 66" d="M781.274,600.21a1.17,1.17,0,0,0-1.586-1.664C778.492,599.56,780,601.8,781.274,600.21Z" transform="translate(-533.312 -533.468)" fill="#000001" fill-rule="evenodd"/>
        <path id="Path_67" data-name="Path 67" d="M784.212,604.864a1.326,1.326,0,0,0-1.716-2C781.092,603.928,782.6,606.606,784.212,604.864Z" transform="translate(-533.312 -533.468)" fill="#000001" fill-rule="evenodd"/>
        <path id="Path_68" data-name="Path 68" d="M787.956,614.328a2.418,2.418,0,0,0,2.6,3.9C793.52,616.616,790.92,611.312,787.956,614.328Z" transform="translate(-533.312 -533.468)" fill="#000001" fill-rule="evenodd"/>
        <path id="Path_69" data-name="Path 69" d="M784.966,608.244a1.924,1.924,0,0,0,2.34,3.016C789.516,609.856,787.228,605.8,784.966,608.244Z" transform="translate(-533.312 -533.468)" fill="#000001" fill-rule="evenodd"/>
        <path id="Path_70" data-name="Path 70" d="M769.6,585.468a1.508,1.508,0,0,0-2.392-1.742C766.012,585.26,768.482,587.782,769.6,585.468Z" transform="translate(-533.312 -533.468)" fill="#000001" fill-rule="evenodd"/>
        <path id="Path_71" data-name="Path 71" d="M774.02,591.37a2.6,2.6,0,0,0,.78-1.17,1.924,1.924,0,0,0-1.716-2.314,2,2,0,0,0-1.924,2.158,2.106,2.106,0,0,0,.858,1.144,2,2,0,0,0,1.69.416,1.456,1.456,0,0,0,.312-.234Z" transform="translate(-533.312 -533.468)" fill="#000001" fill-rule="evenodd"/>
        <path id="Path_72" data-name="Path 72" d="M797.68,635.83a1.448,1.448,0,0,0-1.274-2.6C794.664,634.088,795.6,637.26,797.68,635.83Z" transform="translate(-533.312 -533.468)" fill="#000001" fill-rule="evenodd"/>
        <path id="Path_73" data-name="Path 73" d="M795.34,630.5a1.534,1.534,0,0,0,.26-2.912C793.182,626.834,792.48,631.514,795.34,630.5Z" transform="translate(-533.312 -533.468)" fill="#000001" fill-rule="evenodd"/>
        <path id="Path_74" data-name="Path 74" d="M797.394,640.77a1.274,1.274,0,0,0,2.418.156C800.41,638.95,796.51,638.482,797.394,640.77Z" transform="translate(-533.312 -533.468)" fill="#000001" fill-rule="evenodd"/>
        <path id="Path_75" data-name="Path 75" d="M746.642,565.37a2.08,2.08,0,0,0-3.692-1.794C741.52,565.994,745.576,568.854,746.642,565.37Z" transform="translate(-533.312 -533.468)" fill="#000001" fill-rule="evenodd"/>
        <path id="Path_76" data-name="Path 76" d="M718.172,549.3a1.222,1.222,0,0,0-.416-1.066,1.612,1.612,0,0,0-2.6.65,1.378,1.378,0,0,0,.364,1.456,1.456,1.456,0,0,0,1.456.26,1.586,1.586,0,0,0,1.2-1.3Z" transform="translate(-533.312 -533.468)" fill="#000001" fill-rule="evenodd"/>
        <path id="Path_77" data-name="Path 77" d="M764.738,580.632a.992.992,0,1,0-1.69-1.04C762.06,580.814,763.828,582.4,764.738,580.632Z" transform="translate(-533.312 -533.468)" fill="#000001" fill-rule="evenodd"/>
        <path id="Path_78" data-name="Path 78" d="M723.06,551.59a1.17,1.17,0,0,0-2.236-.572C720.356,552.5,722.8,553.592,723.06,551.59Z" transform="translate(-533.312 -533.468)" fill="#000001" fill-rule="evenodd"/>
        <path id="Path_79" data-name="Path 79" d="M728,553.956a1.354,1.354,0,1,0-2.6-.754C724.88,554.84,727.688,556.244,728,553.956Z" transform="translate(-533.312 -533.468)" fill="#000001" fill-rule="evenodd"/>
        <path id="Path_80" data-name="Path 80" d="M736.242,559.962a2.392,2.392,0,0,0,4.342,1.872C742.2,559,737.126,555.828,736.242,559.962Z" transform="translate(-533.312 -533.468)" fill="#000001" fill-rule="evenodd"/>
        <path id="Path_81" data-name="Path 81" d="M730.444,556.4a1.95,1.95,0,0,0,3.588,1.3C735.176,555.308,730.99,553.046,730.444,556.4Z" transform="translate(-533.312 -533.468)" fill="#000001" fill-rule="evenodd"/>
        <path id="Path_82" data-name="Path 82" d="M705.51,545.012a1.508,1.508,0,0,0-2.938-.26C702.26,546.728,705.666,547.612,705.51,545.012Z" transform="translate(-533.312 -533.468)" fill="#000001" fill-rule="evenodd"/>
        <path id="Path_83" data-name="Path 83" d="M712.244,547.82a2.6,2.6,0,0,0,0-1.3,1.924,1.924,0,0,0-2.6-1.092,2,2,0,0,0-.546,2.834,2.158,2.158,0,0,0,1.326.52,1.976,1.976,0,0,0,1.638-.52A1.378,1.378,0,0,0,712.244,547.82Z" transform="translate(-533.312 -533.468)" fill="#000001" fill-rule="evenodd"/>
        <path id="Path_84" data-name="Path 84" d="M756,572.858a1.43,1.43,0,0,0-2.444-1.352C752.518,573.066,755.144,575.172,756,572.858Z" transform="translate(-533.312 -533.468)" fill="#000001" fill-rule="evenodd"/>
        <path id="Path_85" data-name="Path 85" d="M751.114,569.686a1.534,1.534,0,0,0-1.378-2.6C747.292,567.788,749.242,572,751.114,569.686Z" transform="translate(-533.312 -533.468)" fill="#000001" fill-rule="evenodd"/>
        <path id="Path_86" data-name="Path 86" d="M758.524,577.2a1.274,1.274,0,0,0,2.08-1.2C760.006,573.924,756.6,575.718,758.524,577.2Z" transform="translate(-533.312 -533.468)" fill="#000001" fill-rule="evenodd"/>
        <path id="Path_87" data-name="Path 87" d="M675.246,540.618a2.08,2.08,0,0,0-4.056.754C671.554,544.154,676.416,544.024,675.246,540.618Z" transform="translate(-533.312 -533.468)" fill="#000001" fill-rule="evenodd"/>
        <path id="Path_88" data-name="Path 88" d="M642.9,545.4a1.248,1.248,0,0,0-.988-.6,1.638,1.638,0,0,0-1.586,2.106,1.378,1.378,0,0,0,1.2.91,1.456,1.456,0,0,0,1.3-.7,1.586,1.586,0,0,0,.078-1.716Z" transform="translate(-533.312 -533.468)" fill="#000001" fill-rule="evenodd"/>
        <path id="Path_89" data-name="Path 89" d="M698.75,543.4a.988.988,0,0,0-1.976,0C696.592,544.96,698.906,545.428,698.75,543.4Z" transform="translate(-533.312 -533.468)" fill="#000001" fill-rule="evenodd"/>
        <path id="Path_90" data-name="Path 90" d="M648.154,544.154a1.17,1.17,0,0,0-2.106.936C646.594,546.546,649.246,545.844,648.154,544.154Z" transform="translate(-533.312 -533.468)" fill="#000001" fill-rule="evenodd"/>
        <path id="Path_91" data-name="Path 91" d="M653.51,542.932a1.326,1.326,0,0,0-2.444.962C651.612,545.584,654.68,544.934,653.51,542.932Z" transform="translate(-533.312 -533.468)" fill="#000001" fill-rule="evenodd"/>
        <path id="Path_92" data-name="Path 92" d="M663.676,542.568a2.392,2.392,0,0,0,4.576-1.17C667.758,538.2,661.856,538.746,663.676,542.568Z" transform="translate(-533.312 -533.468)" fill="#000001" fill-rule="evenodd"/>
        <path id="Path_93" data-name="Path 93" d="M656.916,543.4a1.924,1.924,0,0,0,3.64-1.17C659.984,539.578,655.2,540.358,656.916,543.4Z" transform="translate(-533.312 -533.468)" fill="#000001" fill-rule="evenodd"/>
        <path id="Path_94" data-name="Path 94" d="M630.318,549.926a1.53,1.53,0,0,0-2.6,1.612C628.836,553.306,632.06,551.876,630.318,549.926Z" transform="translate(-533.312 -533.468)" fill="#000001" fill-rule="evenodd"/>
        <path id="Path_95" data-name="Path 95" d="M637.338,547.95a2.6,2.6,0,0,0-.806-1.014,1.924,1.924,0,0,0-2.756.78,2,2,0,0,0,1.326,2.6,2.106,2.106,0,0,0,1.378-.416,2,2,0,0,0,.962-1.43,1.431,1.431,0,0,0-.1-.52Z" transform="translate(-533.312 -533.468)" fill="#000001" fill-rule="evenodd"/>
        <path id="Path_96" data-name="Path 96" d="M687.206,541.476a1.43,1.43,0,0,0-2.782.208C684.45,543.582,687.778,543.868,687.206,541.476Z" transform="translate(-533.312 -533.468)" fill="#000001" fill-rule="evenodd"/>
        <path id="Path_97" data-name="Path 97" d="M681.408,541.58a1.534,1.534,0,0,0-2.6-1.352C677.2,542.178,681.2,544.622,681.408,541.58Z" transform="translate(-533.312 -533.468)" fill="#000001" fill-rule="evenodd"/>
        <path id="Path_98" data-name="Path 98" d="M691.6,543.738a1.274,1.274,0,0,0,1.118-2.132C691.184,540.228,689.182,543.634,691.6,543.738Z" transform="translate(-533.312 -533.468)" fill="#000001" fill-rule="evenodd"/>
        <path id="Path_99" data-name="Path 99" d="M603.694,565.006a2.08,2.08,0,0,0-2.782,3.042C602.836,570.05,606.684,567.034,603.694,565.006Z" transform="translate(-533.312 -533.468)" fill="#000001" fill-rule="evenodd"/>
        <path id="Path_100" data-name="Path 100" d="M580.268,587.808a1.274,1.274,0,0,0-1.144,0,1.638,1.638,0,0,0,0,2.6,1.378,1.378,0,0,0,1.508,0,1.456,1.456,0,0,0,.676-1.326,1.586,1.586,0,0,0-1.04-1.274Z" transform="translate(-533.312 -533.468)" fill="#000001" fill-rule="evenodd"/>
        <path id="Path_101" data-name="Path 101" d="M624,552.89a1,1,0,0,0-1.586,1.222C623.3,555.438,625.4,554.372,624,552.89Z" transform="translate(-533.312 -533.468)" fill="#000001" fill-rule="evenodd"/>
        <path id="Path_102" data-name="Path 102" d="M583.856,583.778a1.17,1.17,0,0,0-1.2,1.976C583.934,586.638,585.728,584.532,583.856,583.778Z" transform="translate(-533.312 -533.468)" fill="#000001" fill-rule="evenodd"/>
        <path id="Path_103" data-name="Path 103" d="M587.6,579.8a1.326,1.326,0,0,0-1.43,2.184C587.6,582.946,589.6,580.632,587.6,579.8Z" transform="translate(-533.312 -533.468)" fill="#000001" fill-rule="evenodd"/>
        <path id="Path_104" data-name="Path 104" d="M595.582,573.456a2.392,2.392,0,0,0,3.016-3.666C596.258,567.5,591.864,571.454,595.582,573.456Z" transform="translate(-533.312 -533.468)" fill="#000001" fill-rule="evenodd"/>
        <path id="Path_105" data-name="Path 105" d="M590.538,578.032a1.924,1.924,0,0,0,2.262-3.068C590.824,573.2,587.6,576.576,590.538,578.032Z" transform="translate(-533.312 -533.468)" fill="#000001" fill-rule="evenodd"/>
        <path id="Path_106" data-name="Path 106" d="M572.416,598.624a1.508,1.508,0,0,0-1.17,2.6C573.066,602.264,574.938,599.248,572.416,598.624Z" transform="translate(-533.312 -533.468)" fill="#000001" fill-rule="evenodd"/>
        <path id="Path_107" data-name="Path 107" d="M577.2,593.034a2.6,2.6,0,0,0-1.222-.39,1.924,1.924,0,0,0-1.846,2.21,2,2,0,0,0,2.6,1.378,2.158,2.158,0,0,0,.91-1.118,2,2,0,0,0,0-1.742,1.454,1.454,0,0,0-.442-.338Z" transform="translate(-533.312 -533.468)" fill="#000001" fill-rule="evenodd"/>
        <path id="Path_108" data-name="Path 108" d="M613.756,558.454a1.43,1.43,0,0,0-2.08,1.872C612.82,561.808,615.654,560.014,613.756,558.454Z" transform="translate(-533.312 -533.468)" fill="#000001" fill-rule="evenodd"/>
        <path id="Path_109" data-name="Path 109" d="M609.18,562.068a1.534,1.534,0,0,0-2.886.494C606.216,565.084,611,564.564,609.18,562.068Z" transform="translate(-533.312 -533.468)" fill="#000001" fill-rule="evenodd"/>
        <path id="Path_110" data-name="Path 110" d="M618.618,557.518a1.274,1.274,0,0,0-.416-2.366C616.2,555.022,616.616,559,618.618,557.518Z" transform="translate(-533.312 -533.468)" fill="#000001" fill-rule="evenodd"/>
        <path id="Path_111" data-name="Path 111" d="M558.428,625.82a2.08,2.08,0,0,0-.728,4.056C560.43,630.526,562.042,625.9,558.428,625.82Z" transform="translate(-533.312 -533.468)" fill="#000001" fill-rule="evenodd"/>
        <path id="Path_112" data-name="Path 112" d="M551.018,657.67a1.248,1.248,0,0,0-.91.7,1.638,1.638,0,0,0,1.352,2.262,1.378,1.378,0,0,0,1.3-.78,1.456,1.456,0,0,0-.156-1.482A1.586,1.586,0,0,0,551.018,657.67Z" transform="translate(-533.312 -533.468)" fill="#000001" fill-rule="evenodd"/>
        <path id="Path_113" data-name="Path 113" d="M568.854,604.552a.991.991,0,1,0-.65,1.872C569.608,607.1,570.778,605.046,568.854,604.552Z" transform="translate(-533.312 -533.468)" fill="#000001" fill-rule="evenodd"/>
        <path id="Path_114" data-name="Path 114" d="M551.8,652.314a1.17,1.17,0,0,0,0,2.288C553.462,654.654,553.8,651.924,551.8,652.314Z" transform="translate(-533.312 -533.468)" fill="#000001" fill-rule="evenodd"/>
        <path id="Path_115" data-name="Path 115" d="M552.63,646.88a1.326,1.326,0,0,0,0,2.6C554.4,649.636,554.892,646.542,552.63,646.88Z" transform="translate(-533.312 -533.468)" fill="#000001" fill-rule="evenodd"/>
        <path id="Path_116" data-name="Path 116" d="M556.114,637.338a2.392,2.392,0,0,0,.572-4.706C553.514,631.93,551.9,637.624,556.114,637.338Z" transform="translate(-533.312 -533.468)" fill="#000001" fill-rule="evenodd"/>
        <path id="Path_117" data-name="Path 117" d="M554.294,643.89a1.924,1.924,0,0,0,.26-3.8C551.98,639.6,550.94,644.28,554.294,643.89Z" transform="translate(-533.312 -533.468)" fill="#000001" fill-rule="evenodd"/>
        <path id="Path_118" data-name="Path 118" d="M550.394,671.008a1.508,1.508,0,0,0,.52,2.912C552.916,673.712,552.864,670.176,550.394,671.008Z" transform="translate(-533.312 -533.468)" fill="#000001" fill-rule="evenodd"/>
        <path id="Path_119" data-name="Path 119" d="M551.2,663.78a2.6,2.6,0,0,0-1.248.338,1.924,1.924,0,0,0-.312,2.86,2,2,0,0,0,2.886-.234,2.158,2.158,0,0,0,.156-1.43,2,2,0,0,0-.962-1.456A1.457,1.457,0,0,0,551.2,663.78Z" transform="translate(-533.312 -533.468)" fill="#000001" fill-rule="evenodd"/>
        <path id="Path_120" data-name="Path 120" d="M563.29,614.848a1.4,1.4,0,0,0-.728,2.6C564.356,618.176,565.76,615.134,563.29,614.848Z" transform="translate(-533.312 -533.468)" fill="#000001" fill-rule="evenodd"/>
        <path id="Path_121" data-name="Path 121" d="M561.444,620.386a1.534,1.534,0,0,0-2.158,1.976C560.586,624.546,564.2,621.556,561.444,620.386Z" transform="translate(-533.312 -533.468)" fill="#000001" fill-rule="evenodd"/>
        <path id="Path_122" data-name="Path 122" d="M566.8,611.416a1.274,1.274,0,0,0-1.664-1.742C563.394,610.714,565.994,613.6,566.8,611.416Z" transform="translate(-533.312 -533.468)" fill="#000001" fill-rule="evenodd"/>
        <path id="Path_123" data-name="Path 123" d="M553.15,701.48a2.08,2.08,0,0,0,1.534,3.822C557.336,704.444,556.4,699.634,553.15,701.48Z" transform="translate(-533.312 -533.468)" fill="#000001" fill-rule="evenodd"/>
        <path id="Path_124" data-name="Path 124" d="M563.394,732.55a1.274,1.274,0,0,0-.416,1.066,1.612,1.612,0,0,0,2.314,1.222,1.378,1.378,0,0,0,.7-1.326,1.482,1.482,0,0,0-.91-1.17,1.586,1.586,0,0,0-1.69.208Z" transform="translate(-533.312 -533.468)" fill="#000001" fill-rule="evenodd"/>
        <path id="Path_125" data-name="Path 125" d="M550.628,677.924a.99.99,0,1,0,.468,1.924C552.656,679.666,552.526,677.274,550.628,677.924Z" transform="translate(-533.312 -533.468)" fill="#000001" fill-rule="evenodd"/>
        <path id="Path_126" data-name="Path 126" d="M561.314,727.558a1.17,1.17,0,0,0,1.248,1.924C563.94,728.7,562.822,726.206,561.314,727.558Z" transform="translate(-533.312 -533.468)" fill="#000001" fill-rule="evenodd"/>
        <path id="Path_127" data-name="Path 127" d="M559.26,722.462a1.326,1.326,0,0,0,1.326,2.262C562.172,723.918,561.028,721.006,559.26,722.462Z" transform="translate(-533.312 -533.468)" fill="#000001" fill-rule="evenodd"/>
        <path id="Path_128" data-name="Path 128" d="M557.206,712.4a2.392,2.392,0,0,0-1.976-4.316C552.136,709.254,553.8,715,557.206,712.4Z" transform="translate(-533.312 -533.468)" fill="#000001" fill-rule="evenodd"/>
        <path id="Path_129" data-name="Path 129" d="M559,719.03a1.924,1.924,0,0,0-1.768-3.38C554.892,716.638,556.4,721.136,559,719.03Z" transform="translate(-533.312 -533.468)" fill="#000001" fill-rule="evenodd"/>
        <path id="Path_130" data-name="Path 130" d="M569.972,744.2a1.508,1.508,0,0,0,2.054,2.158C573.56,745.03,571.558,742.144,569.972,744.2Z" transform="translate(-533.312 -533.468)" fill="#000001" fill-rule="evenodd"/>
        <path id="Path_131" data-name="Path 131" d="M566.8,737.62a2.6,2.6,0,0,0-.884.962,1.924,1.924,0,0,0,1.248,2.6,2,2,0,0,0,2.288-1.742,2.081,2.081,0,0,0-.624-1.274,1.976,1.976,0,0,0-1.586-.7A1.432,1.432,0,0,0,566.8,737.62Z" transform="translate(-533.312 -533.468)" fill="#000001" fill-rule="evenodd"/>
        <path id="Path_132" data-name="Path 132" d="M551.486,689.6a1.43,1.43,0,0,0,.806,2.6C554.164,691.86,553.8,688.532,551.486,689.6Z" transform="translate(-533.312 -533.468)" fill="#000001" fill-rule="evenodd"/>
        <path id="Path_133" data-name="Path 133" d="M552.838,695.266a1.534,1.534,0,0,0-.78,2.808C554.32,699.244,555.854,694.772,552.838,695.266Z" transform="translate(-533.312 -533.468)" fill="#000001" fill-rule="evenodd"/>
        <path id="Path_134" data-name="Path 134" d="M552.682,684.762a1.274,1.274,0,0,0-2.34-.6C549.354,686.036,553.124,687.206,552.682,684.762Z" transform="translate(-533.312 -533.468)" fill="#000001" fill-rule="evenodd"/>
        <path id="Path_135" data-name="Path 135" d="M590.2,767.208a2.08,2.08,0,0,0,3.562,2.054C595.218,767,591.422,763.828,590.2,767.208Z" transform="translate(-533.312 -533.468)" fill="#000001" fill-rule="evenodd"/>
        <path id="Path_136" data-name="Path 136" d="M617.552,784.992a1.248,1.248,0,0,0,.312,1.092,1.612,1.612,0,0,0,2.6-.468,1.378,1.378,0,0,0-.26-1.482,1.482,1.482,0,0,0-1.43-.364A1.586,1.586,0,0,0,617.552,784.992Z" transform="translate(-533.312 -533.468)" fill="#000001" fill-rule="evenodd"/>
        <path id="Path_137" data-name="Path 137" d="M574.054,749.814a.988.988,0,0,0,1.482,1.3C576.68,750.048,575.224,748.2,574.054,749.814Z" transform="translate(-533.312 -533.468)" fill="#000001" fill-rule="evenodd"/>
        <path id="Path_138" data-name="Path 138" d="M612.82,782.366a1.17,1.17,0,0,0,2.184.728C615.6,781.664,613.158,780.39,612.82,782.366Z" transform="translate(-533.312 -533.468)" fill="#000001" fill-rule="evenodd"/>
        <path id="Path_139" data-name="Path 139" d="M608.036,779.714a1.326,1.326,0,0,0,2.47.91C611.208,779.012,608.4,777.4,608.036,779.714Z" transform="translate(-533.312 -533.468)" fill="#000001" fill-rule="evenodd"/>
        <path id="Path_140" data-name="Path 140" d="M600.158,773.24a2.392,2.392,0,0,0-4.238-2.106C594.178,773.916,599.04,777.4,600.158,773.24Z" transform="translate(-533.312 -533.468)" fill="#000001" fill-rule="evenodd"/>
        <path id="Path_141" data-name="Path 141" d="M605.8,777.114a1.95,1.95,0,0,0-3.51-1.508C600.964,777.92,604.994,780.442,605.8,777.114Z" transform="translate(-533.312 -533.468)" fill="#000001" fill-rule="evenodd"/>
        <path id="Path_142" data-name="Path 142" d="M629.772,790.4a1.508,1.508,0,0,0,2.912.572C633.2,789,629.876,787.8,629.772,790.4Z" transform="translate(-533.312 -533.468)" fill="#000001" fill-rule="evenodd"/>
        <path id="Path_143" data-name="Path 143" d="M623.324,786.916a2.6,2.6,0,0,0,0,1.3,1.924,1.924,0,0,0,2.6,1.326,2,2,0,0,0,.806-2.782,2.133,2.133,0,0,0-1.274-.65,1.976,1.976,0,0,0-1.69.364A1.43,1.43,0,0,0,623.324,786.916Z" transform="translate(-533.312 -533.468)" fill="#000001" fill-rule="evenodd"/>
        <path id="Path_144" data-name="Path 144" d="M581.542,758.784a1.43,1.43,0,0,0,2.262,1.664C585,758.992,582.686,756.6,581.542,758.784Z" transform="translate(-533.312 -533.468)" fill="#000001" fill-rule="evenodd"/>
        <path id="Path_145" data-name="Path 145" d="M586.04,762.5a1.534,1.534,0,0,0,1.118,2.6C589.628,764.738,588.12,760.266,586.04,762.5Z" transform="translate(-533.312 -533.468)" fill="#000001" fill-rule="evenodd"/>
        <path id="Path_146" data-name="Path 146" d="M579.618,754.208a1.274,1.274,0,0,0-2.236.884C577.694,757.172,581.438,755.9,579.618,754.208Z" transform="translate(-533.312 -533.468)" fill="#000001" fill-rule="evenodd"/>
        <path id="Path_147" data-name="Path 147" d="M659.074,799.136a2.08,2.08,0,0,0,4.108,0C663.442,796.406,658.58,795.6,659.074,799.136Z" transform="translate(-533.312 -533.468)" fill="#000001" fill-rule="evenodd"/>
        <path id="Path_148" data-name="Path 148" d="M691.6,802.672a1.274,1.274,0,0,0,.754.858,1.638,1.638,0,0,0,2.158-1.508,1.378,1.378,0,0,0-.858-1.222,1.482,1.482,0,0,0-1.456.26A1.586,1.586,0,0,0,691.6,802.672Z" transform="translate(-533.312 -533.468)" fill="#000001" fill-rule="evenodd"/>
        <path id="Path_149" data-name="Path 149" d="M636.3,792.662a1,1,0,0,0,1.976.26C638.638,791.414,636.4,790.66,636.3,792.662Z" transform="translate(-533.312 -533.468)" fill="#000001" fill-rule="evenodd"/>
        <path id="Path_150" data-name="Path 150" d="M686.192,802.282a1.17,1.17,0,0,0,2.288-.26C688.4,800.462,685.646,800.358,686.192,802.282Z" transform="translate(-533.312 -533.468)" fill="#000001" fill-rule="evenodd"/>
        <path id="Path_151" data-name="Path 151" d="M680.732,801.97a1.326,1.326,0,0,0,2.6-.234C683.306,799.942,680.16,799.734,680.732,801.97Z" transform="translate(-533.312 -533.468)" fill="#000001" fill-rule="evenodd"/>
        <path id="Path_152" data-name="Path 152" d="M670.8,799.708a2.418,2.418,0,0,0-4.732,0C665.834,803.062,671.658,803.842,670.8,799.708Z" transform="translate(-533.312 -533.468)" fill="#000001" fill-rule="evenodd"/>
        <path id="Path_153" data-name="Path 153" d="M677.56,800.67a1.95,1.95,0,0,0-3.822.234C673.66,803.4,678.34,803.946,677.56,800.67Z" transform="translate(-533.312 -533.468)" fill="#000001" fill-rule="evenodd"/>
        <path id="Path_154" data-name="Path 154" d="M704.938,802.516a1.508,1.508,0,0,0,2.886-.65C707.512,799.864,703.976,800.072,704.938,802.516Z" transform="translate(-533.312 -533.468)" fill="#000001" fill-rule="evenodd"/>
        <path id="Path_155" data-name="Path 155" d="M697.658,802.022a2.6,2.6,0,0,0,.416,1.222,1.924,1.924,0,0,0,2.86.156,2,2,0,0,0-.39-2.86,2.132,2.132,0,0,0-1.43,0,1.976,1.976,0,0,0-1.4,1.04A1.355,1.355,0,0,0,697.658,802.022Z" transform="translate(-533.312 -533.468)" fill="#000001" fill-rule="evenodd"/>
        <path id="Path_156" data-name="Path 156" d="M647.4,796.172a1.4,1.4,0,0,0,2.782.234C650.546,794.534,647.4,793.7,647.4,796.172Z" transform="translate(-533.312 -533.468)" fill="#000001" fill-rule="evenodd"/>
        <path id="Path_157" data-name="Path 157" d="M653.224,797.056a1.534,1.534,0,0,0,2.314,1.794C657.462,797.212,653.9,794.066,653.224,797.056Z" transform="translate(-533.312 -533.468)" fill="#000001" fill-rule="evenodd"/>
        <path id="Path_158" data-name="Path 158" d="M643.4,793.286a1.274,1.274,0,0,0-1.4,1.95C643.37,796.822,645.84,793.754,643.4,793.286Z" transform="translate(-533.312 -533.468)" fill="#000001" fill-rule="evenodd"/>
        <path id="Path_159" data-name="Path 159" d="M735.28,798.668a2.08,2.08,0,0,0,3.744-1.742C738.01,794.326,733.2,795.6,735.28,798.668Z" transform="translate(-533.312 -533.468)" fill="#000001" fill-rule="evenodd"/>
        <path id="Path_160" data-name="Path 160" d="M765.258,785.616a1.248,1.248,0,0,0,1.118.286,1.612,1.612,0,0,0,.91-2.47,1.4,1.4,0,0,0-1.4-.52,1.456,1.456,0,0,0-1.04,1.04,1.56,1.56,0,0,0,.416,1.664Z" transform="translate(-533.312 -533.468)" fill="#000001" fill-rule="evenodd"/>
        <path id="Path_161" data-name="Path 161" d="M711.828,801.97a1,1,0,1,0,1.924-.546C713.492,799.89,711.126,800.124,711.828,801.97Z" transform="translate(-533.312 -533.468)" fill="#000001" fill-rule="evenodd"/>
        <path id="Path_162" data-name="Path 162" d="M760.552,788.294a1.17,1.17,0,0,0,1.768-1.482C761.384,785.564,759.044,786.968,760.552,788.294Z" transform="translate(-533.312 -533.468)" fill="#000001" fill-rule="evenodd"/>
        <path id="Path_163" data-name="Path 163" d="M755.716,790.92a1.326,1.326,0,0,0,2.106-1.586C756.86,787.8,754,789.308,755.716,790.92Z" transform="translate(-533.312 -533.468)" fill="#000001" fill-rule="evenodd"/>
        <path id="Path_164" data-name="Path 164" d="M745.992,793.884a2.392,2.392,0,0,0-4.134,2.288C743.132,799.214,748.8,797.134,745.992,793.884Z" transform="translate(-533.312 -533.468)" fill="#000001" fill-rule="evenodd"/>
        <path id="Path_165" data-name="Path 165" d="M752.31,791.44a1.924,1.924,0,0,0-3.2,2.08C750.334,795.86,754.676,793.884,752.31,791.44Z" transform="translate(-533.312 -533.468)" fill="#000001" fill-rule="evenodd"/>
        <path id="Path_166" data-name="Path 166" d="M775.918,777.53a1.508,1.508,0,0,0,1.846-2.314C776.256,773.864,773.656,776.23,775.918,777.53Z" transform="translate(-533.312 -533.468)" fill="#000001" fill-rule="evenodd"/>
        <path id="Path_167" data-name="Path 167" d="M769.834,781.586a2.6,2.6,0,0,0,1.066.728,1.924,1.924,0,0,0,2.418-1.586,2,2,0,0,0-2.054-2.028,2.079,2.079,0,0,0-1.17.806,1.976,1.976,0,0,0-.494,1.664A1.457,1.457,0,0,0,769.834,781.586Z" transform="translate(-533.312 -533.468)" fill="#000001" fill-rule="evenodd"/>
        <path id="Path_168" data-name="Path 168" d="M723.476,800.8a1.4,1.4,0,0,0,2.6-.884C725.634,798.2,722.332,798.59,723.476,800.8Z" transform="translate(-533.312 -533.468)" fill="#000001" fill-rule="evenodd"/>
        <path id="Path_169" data-name="Path 169" d="M729.092,799.266a1.534,1.534,0,0,0,2.86.65C733.018,797.628,728.468,796.276,729.092,799.266Z" transform="translate(-533.312 -533.468)" fill="#000001" fill-rule="evenodd"/>
        <path id="Path_170" data-name="Path 170" d="M718.614,799.734a1.274,1.274,0,0,0-.546,2.34C719.966,803.01,721.032,799.214,718.614,799.734Z" transform="translate(-533.312 -533.468)" fill="#000001" fill-rule="evenodd"/>
        <path id="Path_171" data-name="Path 171" d="M795.6,754.234a2.08,2.08,0,0,0,1.456-3.848C794.612,749.242,792.194,753.48,795.6,754.234Z" transform="translate(-533.312 -533.468)" fill="#000001" fill-rule="evenodd"/>
        <path id="Path_172" data-name="Path 172" d="M808.444,724.1a1.274,1.274,0,0,0,1.014-.52,1.638,1.638,0,0,0-.962-2.444,1.4,1.4,0,0,0-1.4.546,1.456,1.456,0,0,0,0,1.482,1.56,1.56,0,0,0,1.352.936Z" transform="translate(-533.312 -533.468)" fill="#000001" fill-rule="evenodd"/>
        <path id="Path_173" data-name="Path 173" d="M780.91,772.72A1,1,0,1,0,782,771.056C780.806,770.068,779.168,771.784,780.91,772.72Z" transform="translate(-533.312 -533.468)" fill="#000001" fill-rule="evenodd"/>
        <path id="Path_174" data-name="Path 174" d="M806.754,729.248a1.17,1.17,0,0,0,.312-2.262C805.532,726.648,804.726,729.3,806.754,729.248Z" transform="translate(-533.312 -533.468)" fill="#000001" fill-rule="evenodd"/>
        <path id="Path_175" data-name="Path 175" d="M805.012,734.448a1.326,1.326,0,0,0,.468-2.6C803.738,731.432,802.7,734.4,805.012,734.448Z" transform="translate(-533.312 -533.468)" fill="#000001" fill-rule="evenodd"/>
        <path id="Path_176" data-name="Path 176" d="M800.02,743.314a2.392,2.392,0,0,0-1.378,4.524C801.684,749.112,804.232,743.73,800.02,743.314Z" transform="translate(-533.312 -533.468)" fill="#000001" fill-rule="evenodd"/>
        <path id="Path_177" data-name="Path 177" d="M802.88,737.152a1.924,1.924,0,0,0-.858,3.718C804.492,741.7,806.26,737.282,802.88,737.152Z" transform="translate(-533.312 -533.468)" fill="#000001" fill-rule="evenodd"/>
        <path id="Path_178" data-name="Path 178" d="M811.2,711.074a1.508,1.508,0,0,0,0-2.964C809.25,707.98,808.6,711.49,811.2,711.074Z" transform="translate(-533.312 -533.468)" fill="#000001" fill-rule="evenodd"/>
        <path id="Path_179" data-name="Path 179" d="M809.224,718.068a2.6,2.6,0,0,0,1.274-.13,1.924,1.924,0,0,0,.806-2.756,2,2,0,0,0-2.886-.234,2.158,2.158,0,0,0-.39,1.378,1.976,1.976,0,0,0,.7,1.586A1.431,1.431,0,0,0,809.224,718.068Z" transform="translate(-533.312 -533.468)" fill="#000001" fill-rule="evenodd"/>
        <path id="Path_180" data-name="Path 180" d="M788.71,763.984a1.453,1.453,0,1,0,1.3-2.6C788.4,760.526,786.4,763.2,788.71,763.984Z" transform="translate(-533.312 -533.468)" fill="#000001" fill-rule="evenodd"/>
        <path id="Path_181" data-name="Path 181" d="M791.7,758.992a1.534,1.534,0,0,0,2.6-1.534C793.364,755.092,789.178,757.276,791.7,758.992Z" transform="translate(-533.312 -533.468)" fill="#000001" fill-rule="evenodd"/>
        <path id="Path_182" data-name="Path 182" d="M784.472,766.558a1.274,1.274,0,0,0,1.2,2.08C787.8,768.04,785.876,764.53,784.472,766.558Z" transform="translate(-533.312 -533.468)" fill="#000001" fill-rule="evenodd"/>
        <path id="Path_183" data-name="Path 183" d="M813.462,680.55a2.08,2.08,0,0,0-.884-4.03C809.822,676.962,810.082,681.876,813.462,680.55Z" transform="translate(-533.312 -533.468)" fill="#000001" fill-rule="evenodd"/>
        <path id="Path_184" data-name="Path 184" d="M808.886,648.18a1.274,1.274,0,0,0,.624-.962,1.612,1.612,0,0,0-2-1.69,1.4,1.4,0,0,0-.962,1.144,1.482,1.482,0,0,0,.65,1.352A1.586,1.586,0,0,0,808.886,648.18Z" transform="translate(-533.312 -533.468)" fill="#000001" fill-rule="evenodd"/>
        <path id="Path_185" data-name="Path 185" d="M812.188,704.184a.991.991,0,0,0-.156-1.976C810.472,702.156,810.238,704.6,812.188,704.184Z" transform="translate(-533.312 -533.468)" fill="#000001" fill-rule="evenodd"/>
        <path id="Path_186" data-name="Path 186" d="M809.9,653.458a1.17,1.17,0,0,0-.858-2.132C807.586,651.82,808.184,654.5,809.9,653.458Z" transform="translate(-533.312 -533.468)" fill="#000001" fill-rule="evenodd"/>
        <path id="Path_187" data-name="Path 187" d="M810.992,658.84a1.326,1.326,0,0,0-.884-2.47C808.366,656.864,808.964,659.958,810.992,658.84Z" transform="translate(-533.312 -533.468)" fill="#000001" fill-rule="evenodd"/>
        <path id="Path_188" data-name="Path 188" d="M811.2,669.006a2.418,2.418,0,0,0,1.222,4.576C815.724,673.036,815.048,667.186,811.2,669.006Z" transform="translate(-533.312 -533.468)" fill="#000001" fill-rule="evenodd"/>
        <path id="Path_189" data-name="Path 189" d="M810.524,662.246a1.95,1.95,0,0,0,1.17,3.64C814.268,665.34,813.514,660.66,810.524,662.246Z" transform="translate(-533.312 -533.468)" fill="#000001" fill-rule="evenodd"/>
        <path id="Path_190" data-name="Path 190" d="M805.194,635.336a1.508,1.508,0,0,0-1.4-2.6C801.944,633.568,803.114,637,805.194,635.336Z" transform="translate(-533.312 -533.468)" fill="#000001" fill-rule="evenodd"/>
        <path id="Path_191" data-name="Path 191" d="M806.676,642.486a2.6,2.6,0,0,0,1.066-.728,1.924,1.924,0,0,0-.6-2.808,2,2,0,0,0-2.6,1.144,2.132,2.132,0,0,0,.312,1.4,1.976,1.976,0,0,0,1.378,1.066,1.376,1.376,0,0,0,.442-.078Z" transform="translate(-533.312 -533.468)" fill="#000001" fill-rule="evenodd"/>
        <path id="Path_192" data-name="Path 192" d="M813.228,692.536a1.4,1.4,0,0,0-.364-2.782C810.94,689.884,810.862,693.264,813.228,692.536Z" transform="translate(-533.312 -533.468)" fill="#000001" fill-rule="evenodd"/>
        <path id="Path_193" data-name="Path 193" d="M812.786,686.738a1.534,1.534,0,0,0,1.2-2.6C811.98,682.578,809.744,686.738,812.786,686.738Z" transform="translate(-533.312 -533.468)" fill="#000001" fill-rule="evenodd"/>
        <path id="Path_194" data-name="Path 194" d="M811.2,697.112a1.274,1.274,0,0,0,2.21.962C814.762,696.384,811.2,694.642,811.2,697.112Z" transform="translate(-533.312 -533.468)" fill="#000001" fill-rule="evenodd"/>
        <path id="Path_195" data-name="Path 195" d="M793,607.282a2.08,2.08,0,0,0-2.6-3.172C788.086,605.8,790.582,610.012,793,607.282Z" transform="translate(-533.312 -533.468)" fill="#000001" fill-rule="evenodd"/>
        <path id="Path_196" data-name="Path 196" d="M774.1,580.606a1.248,1.248,0,0,0,0-1.144,1.612,1.612,0,0,0-2.6-.572,1.378,1.378,0,0,0-.338,1.456,1.482,1.482,0,0,0,1.2.884A1.56,1.56,0,0,0,774.1,580.606Z" transform="translate(-533.312 -533.468)" fill="#000001" fill-rule="evenodd"/>
        <path id="Path_197" data-name="Path 197" d="M802.8,628.836a1,1,0,1,0-1.066-1.69C800.332,627.822,801.19,630.032,802.8,628.836Z" transform="translate(-533.312 -533.468)" fill="#000001" fill-rule="evenodd"/>
        <path id="Path_198" data-name="Path 198" d="M777.4,584.818a1.17,1.17,0,0,0-1.742-1.508C774.618,584.428,776.386,586.534,777.4,584.818Z" transform="translate(-533.312 -533.468)" fill="#000001" fill-rule="evenodd"/>
        <path id="Path_199" data-name="Path 199" d="M780.858,589.134a1.326,1.326,0,0,0-1.924-1.794C777.634,588.562,779.558,591.032,780.858,589.134Z" transform="translate(-533.312 -533.468)" fill="#000001" fill-rule="evenodd"/>
        <path id="Path_200" data-name="Path 200" d="M785.746,598a2.418,2.418,0,0,0,3.2,3.51C791.57,599.612,788.294,594.7,785.746,598Z" transform="translate(-533.312 -533.468)" fill="#000001" fill-rule="evenodd"/>
        <path id="Path_201" data-name="Path 201" d="M782,592.384a1.924,1.924,0,0,0,2.6,2.6C786.734,593.424,783.952,589.6,782,592.384Z" transform="translate(-533.312 -533.468)" fill="#000001" fill-rule="evenodd"/>
        <path id="Path_202" data-name="Path 202" d="M764.868,570.934a1.508,1.508,0,0,0-2.47-1.638C761.176,570.882,763.776,573.3,764.868,570.934Z" transform="translate(-533.312 -533.468)" fill="#000001" fill-rule="evenodd"/>
        <path id="Path_203" data-name="Path 203" d="M769.6,576.576a2.6,2.6,0,0,0,.624-1.144,1.924,1.924,0,0,0-1.846-2.21,2,2,0,0,0-1.82,2.262,2.183,2.183,0,0,0,.936,1.092,2,2,0,0,0,1.716.312A1.455,1.455,0,0,0,769.6,576.576Z" transform="translate(-533.312 -533.468)" fill="#000001" fill-rule="evenodd"/>
        <path id="Path_204" data-name="Path 204" d="M798.356,618.02a1.43,1.43,0,0,0-1.638-2.262C795.106,616.746,796.614,619.736,798.356,618.02Z" transform="translate(-533.312 -533.468)" fill="#000001" fill-rule="evenodd"/>
        <path id="Path_205" data-name="Path 205" d="M795.262,613.08a1.534,1.534,0,0,0-.156-2.912C792.584,609.752,792.558,614.51,795.262,613.08Z" transform="translate(-533.312 -533.468)" fill="#000001" fill-rule="evenodd"/>
        <path id="Path_206" data-name="Path 206" d="M798.746,622.96a1.274,1.274,0,0,0,2.392-.156C801.5,620.724,797.55,620.8,798.746,622.96Z" transform="translate(-533.312 -533.468)" fill="#000001" fill-rule="evenodd"/>
        <path id="Path_207" data-name="Path 207" d="M740.74,552.162a2.08,2.08,0,0,0-3.874-1.43C735.8,553.28,739.986,555.7,740.74,552.162Z" transform="translate(-533.312 -533.468)" fill="#000001" fill-rule="evenodd"/>
        <path id="Path_208" data-name="Path 208" d="M710.606,539.474a1.248,1.248,0,0,0-.52-1.014,1.612,1.612,0,0,0-2.444.936,1.378,1.378,0,0,0,.546,1.4,1.456,1.456,0,0,0,1.482,0,1.586,1.586,0,0,0,.936-1.326Z" transform="translate(-533.312 -533.468)" fill="#000001" fill-rule="evenodd"/>
        <path id="Path_209" data-name="Path 209" d="M759.694,566.332a1,1,0,1,0-1.742-.988C757.068,566.618,758.888,568.126,759.694,566.332Z" transform="translate(-533.312 -533.468)" fill="#000001" fill-rule="evenodd"/>
        <path id="Path_210" data-name="Path 210" d="M715.728,541.164a1.17,1.17,0,0,0-2.262-.312C713.128,542.386,715.78,543.192,715.728,541.164Z" transform="translate(-533.312 -533.468)" fill="#000001" fill-rule="evenodd"/>
        <path id="Path_211" data-name="Path 211" d="M720.928,542.906a1.326,1.326,0,0,0-2.6-.468C717.912,544.18,720.876,545.22,720.928,542.906Z" transform="translate(-533.312 -533.468)" fill="#000001" fill-rule="evenodd"/>
        <path id="Path_212" data-name="Path 212" d="M729.794,547.9a2.392,2.392,0,0,0,4.524,1.352C735.566,546.234,730.21,543.686,729.794,547.9Z" transform="translate(-533.312 -533.468)" fill="#000001" fill-rule="evenodd"/>
        <path id="Path_213" data-name="Path 213" d="M723.632,545.038a1.95,1.95,0,0,0,3.718.858C728.182,543.4,723.762,541.658,723.632,545.038Z" transform="translate(-533.312 -533.468)" fill="#000001" fill-rule="evenodd"/>
        <path id="Path_214" data-name="Path 214" d="M697.554,536.588a1.508,1.508,0,0,0-2.964,0C694.486,538.616,697.97,539.162,697.554,536.588Z" transform="translate(-533.312 -533.468)" fill="#000001" fill-rule="evenodd"/>
        <path id="Path_215" data-name="Path 215" d="M704.6,538.668a2.6,2.6,0,0,0,0-1.274,1.924,1.924,0,0,0-2.756-.806,2,2,0,0,0-.234,2.886,2.132,2.132,0,0,0,1.378.39,1.976,1.976,0,0,0,1.586-.7A1.378,1.378,0,0,0,704.6,538.668Z" transform="translate(-533.312 -533.468)" fill="#000001" fill-rule="evenodd"/>
        <path id="Path_216" data-name="Path 216" d="M750.62,559a1.436,1.436,0,0,0-2.6-1.222C747.162,559.39,749.892,561.314,750.62,559Z" transform="translate(-533.312 -533.468)" fill="#000001" fill-rule="evenodd"/>
        <path id="Path_217" data-name="Path 217" d="M745.524,556.088a1.534,1.534,0,0,0-1.56-2.6C741.6,554.5,743.86,558.662,745.524,556.088Z" transform="translate(-533.312 -533.468)" fill="#000001" fill-rule="evenodd"/>
        <path id="Path_218" data-name="Path 218" d="M753.35,563.108a1.274,1.274,0,0,0,2.028-1.3C754.676,559.832,751.27,561.782,753.35,563.108Z" transform="translate(-533.312 -533.468)" fill="#000001" fill-rule="evenodd"/>
        <path id="Path_219" data-name="Path 219" d="M667.03,534.768a2.08,2.08,0,0,0-4,.988C663.52,538.512,668.408,538.2,667.03,534.768Z" transform="translate(-533.312 -533.468)" fill="#000001" fill-rule="evenodd"/>
        <path id="Path_220" data-name="Path 220" d="M634.894,540.956a1.274,1.274,0,0,0-1.014-.572,1.612,1.612,0,0,0-1.534,2.132,1.378,1.378,0,0,0,1.222.858,1.456,1.456,0,0,0,1.274-.728,1.586,1.586,0,0,0,.052-1.69Z" transform="translate(-533.312 -533.468)" fill="#000001" fill-rule="evenodd"/>
        <path id="Path_221" data-name="Path 221" d="M690.664,535.6a.991.991,0,1,0-1.976.156C688.662,537.42,691.028,537.68,690.664,535.6Z" transform="translate(-533.312 -533.468)" fill="#000001" fill-rule="evenodd"/>
        <path id="Path_222" data-name="Path 222" d="M640.12,539.552a1.17,1.17,0,0,0-2.054.988C638.638,542,641.264,541.216,640.12,539.552Z" transform="translate(-533.312 -533.468)" fill="#000001" fill-rule="evenodd"/>
        <path id="Path_223" data-name="Path 223" d="M645.424,538.2a1.326,1.326,0,0,0-2.418,1.04C643.6,540.8,646.646,540.1,645.424,538.2Z" transform="translate(-533.312 -533.468)" fill="#000001" fill-rule="evenodd"/>
        <path id="Path_224" data-name="Path 224" d="M655.564,537.368a2.418,2.418,0,0,0,4.524-1.4C659.412,532.74,653.562,533.624,655.564,537.368Z" transform="translate(-533.312 -533.468)" fill="#000001" fill-rule="evenodd"/>
        <path id="Path_225" data-name="Path 225" d="M648.856,538.408a1.924,1.924,0,0,0,3.562-1.352C651.742,534.534,647.088,535.6,648.856,538.408Z" transform="translate(-533.312 -533.468)" fill="#000001" fill-rule="evenodd"/>
        <path id="Path_226" data-name="Path 226" d="M622.44,545.792A1.508,1.508,0,0,0,620,547.456C621.01,549.172,624.208,547.69,622.44,545.792Z" transform="translate(-533.312 -533.468)" fill="#000001" fill-rule="evenodd"/>
        <path id="Path_227" data-name="Path 227" d="M629.408,543.634a2.6,2.6,0,0,0-.806-.988,1.924,1.924,0,0,0-2.756.858,2,2,0,0,0,1.4,2.6,2.132,2.132,0,0,0,1.352-.442,1.976,1.976,0,0,0,.936-1.456A1.455,1.455,0,0,0,629.408,543.634Z" transform="translate(-533.312 -533.468)" fill="#000001" fill-rule="evenodd"/>
        <path id="Path_228" data-name="Path 228" d="M679.016,534.768a1.43,1.43,0,0,0-2.756.416C676.39,537.082,679.744,537.108,679.016,534.768Z" transform="translate(-533.312 -533.468)" fill="#000001" fill-rule="evenodd"/>
        <path id="Path_229" data-name="Path 229" d="M673.218,535.288a1.534,1.534,0,0,0-2.6-1.144C669.058,536.2,673.4,538.356,673.218,535.288Z" transform="translate(-533.312 -533.468)" fill="#000001" fill-rule="evenodd"/>
        <path id="Path_230" data-name="Path 230" d="M683.618,536.666a1.274,1.274,0,0,0,.936-2.21C682.838,533.182,681.2,536.744,683.618,536.666Z" transform="translate(-533.312 -533.468)" fill="#000001" fill-rule="evenodd"/>
        <path id="Path_231" data-name="Path 231" d="M596.128,561.392a2.08,2.08,0,0,0-2.6,3.094C595.4,566.462,599.17,563.368,596.128,561.392Z" transform="translate(-533.312 -533.468)" fill="#000001" fill-rule="evenodd"/>
        <path id="Path_232" data-name="Path 232" d="M573.118,584.636a1.274,1.274,0,0,0-1.144,0,1.638,1.638,0,0,0,0,2.6,1.378,1.378,0,0,0,1.508,0,1.482,1.482,0,0,0,.65-1.326,1.586,1.586,0,0,0-1.014-1.274Z" transform="translate(-533.312 -533.468)" fill="#000001" fill-rule="evenodd"/>
        <path id="Path_233" data-name="Path 233" d="M616.2,548.886a1,1,0,1,0-1.56,1.248C615.524,551.434,617.6,550.316,616.2,548.886Z" transform="translate(-533.312 -533.468)" fill="#000001" fill-rule="evenodd"/>
        <path id="Path_234" data-name="Path 234" d="M576.654,580.58a1.17,1.17,0,0,0-1.17,1.976C576.784,583.44,578.552,581.308,576.654,580.58Z" transform="translate(-533.312 -533.468)" fill="#000001" fill-rule="evenodd"/>
        <path id="Path_235" data-name="Path 235" d="M580.268,576.446a1.326,1.326,0,0,0-1.4,2.21C580.294,579.8,582.4,577.356,580.268,576.446Z" transform="translate(-533.312 -533.468)" fill="#000001" fill-rule="evenodd"/>
        <path id="Path_236" data-name="Path 236" d="M588.224,570.076a2.392,2.392,0,0,0,2.912-3.744C588.77,564.2,584.48,568.126,588.224,570.076Z" transform="translate(-533.312 -533.468)" fill="#000001" fill-rule="evenodd"/>
        <path id="Path_237" data-name="Path 237" d="M583.284,574.73a1.924,1.924,0,0,0,2.184-3.12C583.492,569.894,580.19,573.326,583.284,574.73Z" transform="translate(-533.312 -533.468)" fill="#000001" fill-rule="evenodd"/>
        <path id="Path_238" data-name="Path 238" d="M565.344,595.4a1.508,1.508,0,0,0-1.144,2.73C565.994,599.144,567.866,596.128,565.344,595.4Z" transform="translate(-533.312 -533.468)" fill="#000001" fill-rule="evenodd"/>
        <path id="Path_239" data-name="Path 239" d="M570.024,589.888a2.6,2.6,0,0,0-1.222-.39,1.924,1.924,0,0,0-1.82,2.236,2,2,0,0,0,2.6,1.352,2.185,2.185,0,0,0,.884-1.118,1.977,1.977,0,0,0,0-1.742,1.454,1.454,0,0,0-.442-.338Z" transform="translate(-533.312 -533.468)" fill="#000001" fill-rule="evenodd"/>
        <path id="Path_240" data-name="Path 240" d="M606.034,554.632a1.4,1.4,0,0,0-2.054,1.9C605.176,558.012,607.984,556.166,606.034,554.632Z" transform="translate(-533.312 -533.468)" fill="#000001" fill-rule="evenodd"/>
        <path id="Path_241" data-name="Path 241" d="M601.536,558.35a1.534,1.534,0,0,0-2.86.572C598.65,561.444,603.33,560.82,601.536,558.35Z" transform="translate(-533.312 -533.468)" fill="#000001" fill-rule="evenodd"/>
        <path id="Path_242" data-name="Path 242" d="M611,553.592a1.274,1.274,0,0,0-.468-2.366C608.4,551.2,608.92,555.048,611,553.592Z" transform="translate(-533.312 -533.468)" fill="#000001" fill-rule="evenodd"/>
        <path id="Path_243" data-name="Path 243" d="M551.434,622.726a2.08,2.08,0,0,0-.728,4.056C553.41,627.458,555.048,622.83,551.434,622.726Z" transform="translate(-533.312 -533.468)" fill="#000001" fill-rule="evenodd"/>
        <path id="Path_244" data-name="Path 244" d="M543.4,654.472a1.248,1.248,0,0,0-.936.65,1.612,1.612,0,0,0,1.222,2.314,1.378,1.378,0,0,0,1.326-.7,1.456,1.456,0,0,0,0-1.482,1.586,1.586,0,0,0-1.612-.78Z" transform="translate(-533.312 -533.468)" fill="#000001" fill-rule="evenodd"/>
        <path id="Path_245" data-name="Path 245" d="M561.808,601.458a.991.991,0,0,0-.65,1.872C562.588,604.006,563.758,601.926,561.808,601.458Z" transform="translate(-533.312 -533.468)" fill="#000001" fill-rule="evenodd"/>
        <path id="Path_246" data-name="Path 246" d="M544.492,649.168a1.17,1.17,0,0,0,0,2.288C546,651.56,546.494,648.856,544.492,649.168Z" transform="translate(-533.312 -533.468)" fill="#000001" fill-rule="evenodd"/>
        <path id="Path_247" data-name="Path 247" d="M545.506,643.76a1.326,1.326,0,0,0,0,2.6C547.2,646.568,547.794,643.5,545.506,643.76Z" transform="translate(-533.312 -533.468)" fill="#000001" fill-rule="evenodd"/>
        <path id="Path_248" data-name="Path 248" d="M549.094,634.27a2.392,2.392,0,0,0,.6-4.706C546.494,628.836,544.882,634.4,549.094,634.27Z" transform="translate(-533.312 -533.468)" fill="#000001" fill-rule="evenodd"/>
        <path id="Path_249" data-name="Path 249" d="M547.222,640.8a1.95,1.95,0,0,0,.286-3.8C544.934,636.532,543.842,641.134,547.222,640.8Z" transform="translate(-533.312 -533.468)" fill="#000001" fill-rule="evenodd"/>
        <path id="Path_250" data-name="Path 250" d="M542.1,667.732a1.508,1.508,0,0,0,.312,2.938C544.414,670.592,544.622,667.056,542.1,667.732Z" transform="translate(-533.312 -533.468)" fill="#000001" fill-rule="evenodd"/>
        <path id="Path_251" data-name="Path 251" d="M543.4,660.556a2.6,2.6,0,0,0-1.248.286,1.924,1.924,0,0,0-.494,2.834,2,2,0,0,0,2.886,0,2.132,2.132,0,0,0,.234-1.43,1.976,1.976,0,0,0-.884-1.508,1.429,1.429,0,0,0-.494-.182Z" transform="translate(-533.312 -533.468)" fill="#000001" fill-rule="evenodd"/>
        <path id="Path_252" data-name="Path 252" d="M556.4,611.78a1.43,1.43,0,0,0-.728,2.6C557.362,615.108,558.74,612.04,556.4,611.78Z" transform="translate(-533.312 -533.468)" fill="#000001" fill-rule="evenodd"/>
        <path id="Path_253" data-name="Path 253" d="M554.424,617.292a1.534,1.534,0,0,0-2.132,1.976C553.566,621.4,557.258,618.462,554.424,617.292Z" transform="translate(-533.312 -533.468)" fill="#000001" fill-rule="evenodd"/>
        <path id="Path_254" data-name="Path 254" d="M559.858,608.4a1.274,1.274,0,0,0-1.664-1.742C556.4,607.62,559,610.61,559.858,608.4Z" transform="translate(-533.312 -533.468)" fill="#000001" fill-rule="evenodd"/>
        <path id="Path_255" data-name="Path 255" d="M542.412,698.334a2.08,2.08,0,0,0,1.17,3.952C546.312,701.662,545.688,696.8,542.412,698.334Z" transform="translate(-533.312 -533.468)" fill="#000001" fill-rule="evenodd"/>
        <path id="Path_256" data-name="Path 256" d="M549.848,730.158a1.248,1.248,0,0,0-.52,1.014,1.612,1.612,0,0,0,2.21,1.43,1.378,1.378,0,0,0,.806-1.248,1.456,1.456,0,0,0-.78-1.248A1.586,1.586,0,0,0,549.848,730.158Z" transform="translate(-533.312 -533.468)" fill="#000001" fill-rule="evenodd"/>
        <path id="Path_257" data-name="Path 257" d="M541.866,674.674a.99.99,0,0,0,.338,1.95C543.764,676.52,543.79,674.154,541.866,674.674Z" transform="translate(-533.312 -533.468)" fill="#000001" fill-rule="evenodd"/>
        <path id="Path_258" data-name="Path 258" d="M548.236,725.01a1.17,1.17,0,0,0,1.066,2.028C550.732,726.414,549.848,723.814,548.236,725.01Z" transform="translate(-533.312 -533.468)" fill="#000001" fill-rule="evenodd"/>
        <path id="Path_259" data-name="Path 259" d="M546.624,719.784a1.326,1.326,0,0,0,1.144,2.366C549.406,721.474,548.6,718.458,546.624,719.784Z" transform="translate(-533.312 -533.468)" fill="#000001" fill-rule="evenodd"/>
        <path id="Path_260" data-name="Path 260" d="M545.454,709.67a2.392,2.392,0,0,0-1.586-4.472C540.8,705.978,541.814,711.8,545.454,709.67Z" transform="translate(-533.312 -533.468)" fill="#000001" fill-rule="evenodd"/>
        <path id="Path_261" data-name="Path 261" d="M546.754,716.326a1.924,1.924,0,0,0-1.456-3.536C542.776,713.6,543.92,718.2,546.754,716.326Z" transform="translate(-533.312 -533.468)" fill="#000001" fill-rule="evenodd"/>
        <path id="Path_262" data-name="Path 262" d="M555.282,742.378a1.508,1.508,0,0,0,1.794,2.34C558.74,743.6,557.076,740.506,555.282,742.378Z" transform="translate(-533.312 -533.468)" fill="#000001" fill-rule="evenodd"/>
        <path id="Path_263" data-name="Path 263" d="M552.786,735.54a2.6,2.6,0,0,0-.962.858,1.924,1.924,0,0,0,.988,2.6,2,2,0,0,0,2.47-1.508,2.08,2.08,0,0,0-.52-1.326,2,2,0,0,0-1.508-.858A1.455,1.455,0,0,0,552.786,735.54Z" transform="translate(-533.312 -533.468)" fill="#000001" fill-rule="evenodd"/>
        <path id="Path_264" data-name="Path 264" d="M541.788,686.4a1.43,1.43,0,0,0,.572,2.73C544.258,688.818,544.076,685.464,541.788,686.4Z" transform="translate(-533.312 -533.468)" fill="#000001" fill-rule="evenodd"/>
        <path id="Path_265" data-name="Path 265" d="M542.646,692.12a1.534,1.534,0,0,0-1.014,2.73C543.738,696.228,545.688,691.886,542.646,692.12Z" transform="translate(-533.312 -533.468)" fill="#000001" fill-rule="evenodd"/>
        <path id="Path_266" data-name="Path 266" d="M543.4,681.642a1.274,1.274,0,0,0-2.288-.78C539.968,682.63,543.634,684.112,543.4,681.642Z" transform="translate(-533.312 -533.468)" fill="#000001" fill-rule="evenodd"/>
        <path id="Path_267" data-name="Path 267" d="M572.546,767.65a2.091,2.091,0,1,0,3.276,2.6C577.668,768.014,574.288,764.4,572.546,767.65Z" transform="translate(-533.312 -533.468)" fill="#000001" fill-rule="evenodd"/>
        <path id="Path_268" data-name="Path 268" d="M597.376,788.892a1.274,1.274,0,0,0,.182,1.144,1.612,1.612,0,0,0,2.6,0,1.378,1.378,0,0,0,0-1.508,1.482,1.482,0,0,0-1.378-.546A1.586,1.586,0,0,0,597.376,788.892Z" transform="translate(-533.312 -533.468)" fill="#000001" fill-rule="evenodd"/>
        <path id="Path_269" data-name="Path 269" d="M558.714,748.41a.994.994,0,1,0,1.326,1.482C561.314,748.956,560.066,746.954,558.714,748.41Z" transform="translate(-533.312 -533.468)" fill="#000001" fill-rule="evenodd"/>
        <path id="Path_270" data-name="Path 270" d="M593.06,785.694a1.17,1.17,0,0,0,2.054,1.014C595.894,785.356,593.632,783.77,593.06,785.694Z" transform="translate(-533.312 -533.468)" fill="#000001" fill-rule="evenodd"/>
        <path id="Path_271" data-name="Path 271" d="M588.666,782.392a1.326,1.326,0,0,0,2.314,1.248C591.916,782.158,589.42,780.234,588.666,782.392Z" transform="translate(-533.312 -533.468)" fill="#000001" fill-rule="evenodd"/>
        <path id="Path_272" data-name="Path 272" d="M581.724,774.93a2.392,2.392,0,0,0-3.926-2.6C575.718,774.8,580.06,778.8,581.724,774.93Z" transform="translate(-533.312 -533.468)" fill="#000001" fill-rule="evenodd"/>
        <path id="Path_273" data-name="Path 273" d="M586.742,779.532a1.95,1.95,0,0,0-3.276-1.95C581.906,779.688,585.546,782.6,586.742,779.532Z" transform="translate(-533.312 -533.468)" fill="#000001" fill-rule="evenodd"/>
        <path id="Path_274" data-name="Path 274" d="M608.868,795.756a1.508,1.508,0,0,0,2.808.91C612.43,794.794,609.284,793.182,608.868,795.756Z" transform="translate(-533.312 -533.468)" fill="#000001" fill-rule="evenodd"/>
        <path id="Path_275" data-name="Path 275" d="M602.888,791.57a2.6,2.6,0,0,0-.286,1.248,1.924,1.924,0,0,0,2.366,1.638,2,2,0,0,0,1.144-2.6,2.158,2.158,0,0,0-1.2-.806,1.976,1.976,0,0,0-1.716.156,1.479,1.479,0,0,0-.312.364Z" transform="translate(-533.312 -533.468)" fill="#000001" fill-rule="evenodd"/>
        <path id="Path_276" data-name="Path 276" d="M565.11,758.212a1.43,1.43,0,0,0,2.054,1.924C568.542,758.836,566.514,756.184,565.11,758.212Z" transform="translate(-533.312 -533.468)" fill="#000001" fill-rule="evenodd"/>
        <path id="Path_277" data-name="Path 277" d="M569.114,762.45a1.534,1.534,0,0,0,.754,2.834C572.416,765.154,571.454,760.5,569.114,762.45Z" transform="translate(-533.312 -533.468)" fill="#000001" fill-rule="evenodd"/>
        <path id="Path_278" data-name="Path 278" d="M563.758,753.428a1.274,1.274,0,0,0-2.34.624C561.6,756.158,565.344,755.326,563.758,753.428Z" transform="translate(-533.312 -533.468)" fill="#000001" fill-rule="evenodd"/>
        <path id="Path_279" data-name="Path 279" d="M637,807.456a2.08,2.08,0,0,0,4.108.416C641.68,805.116,637,803.816,637,807.456Z" transform="translate(-533.312 -533.468)" fill="#000001" fill-rule="evenodd"/>
        <path id="Path_280" data-name="Path 280" d="M669.344,813.072a1.274,1.274,0,0,0,.728.91,1.638,1.638,0,0,0,2.21-1.4,1.378,1.378,0,0,0-.806-1.274,1.482,1.482,0,0,0-1.482.208A1.586,1.586,0,0,0,669.344,813.072Z" transform="translate(-533.312 -533.468)" fill="#000001" fill-rule="evenodd"/>
        <path id="Path_281" data-name="Path 281" d="M615.108,798.772a.99.99,0,1,0,1.924.468C617.552,797.784,615.394,796.822,615.108,798.772Z" transform="translate(-533.312 -533.468)" fill="#000001" fill-rule="evenodd"/>
        <path id="Path_282" data-name="Path 282" d="M663.988,812.448a1.17,1.17,0,0,0,2.288-.156C666.276,810.732,663.52,810.5,663.988,812.448Z" transform="translate(-533.312 -533.468)" fill="#000001" fill-rule="evenodd"/>
        <path id="Path_283" data-name="Path 283" d="M658.528,811.824a1.326,1.326,0,0,0,2.6,0C661.206,809.952,658.086,809.562,658.528,811.824Z" transform="translate(-533.312 -533.468)" fill="#000001" fill-rule="evenodd"/>
        <path id="Path_284" data-name="Path 284" d="M648.778,808.938a2.392,2.392,0,0,0-4.732-.26C643.578,811.928,649.35,813.124,648.778,808.938Z" transform="translate(-533.312 -533.468)" fill="#000001" fill-rule="evenodd"/>
        <path id="Path_285" data-name="Path 285" d="M655.434,810.342a1.924,1.924,0,0,0-3.822,0C651.352,812.916,656.032,813.8,655.434,810.342Z" transform="translate(-533.312 -533.468)" fill="#000001" fill-rule="evenodd"/>
        <path id="Path_286" data-name="Path 286" d="M682.682,813.41a1.508,1.508,0,0,0,2.912-.572C685.334,810.836,681.8,810.94,682.682,813.41Z" transform="translate(-533.312 -533.468)" fill="#000001" fill-rule="evenodd"/>
        <path id="Path_287" data-name="Path 287" d="M675.428,812.682a2.6,2.6,0,0,0,.364,1.248,1.924,1.924,0,0,0,2.86.26,2,2,0,0,0-.312-2.886,2.106,2.106,0,0,0-1.43,0,2,2,0,0,0-1.43.988A1.378,1.378,0,0,0,675.428,812.682Z" transform="translate(-533.312 -533.468)" fill="#000001" fill-rule="evenodd"/>
        <path id="Path_288" data-name="Path 288" d="M625.82,803.4a1.4,1.4,0,0,0,2.756.52C629.044,802.1,625.9,800.982,625.82,803.4Z" transform="translate(-533.312 -533.468)" fill="#000001" fill-rule="evenodd"/>
        <path id="Path_289" data-name="Path 289" d="M631.462,804.856a1.534,1.534,0,0,0,2.132,1.976C635.7,805.4,632.424,801.97,631.462,804.856Z" transform="translate(-533.312 -533.468)" fill="#000001" fill-rule="evenodd"/>
        <path id="Path_290" data-name="Path 290" d="M622.076,800.15a1.274,1.274,0,0,0-1.612,1.794C621.686,803.686,624.468,800.8,622.076,800.15Z" transform="translate(-533.312 -533.468)" fill="#000001" fill-rule="evenodd"/>
        <path id="Path_291" data-name="Path 291" d="M713.076,809.822a2.08,2.08,0,0,0,3.77-1.664C715.884,805.532,711.126,806.754,713.076,809.822Z" transform="translate(-533.312 -533.468)" fill="#000001" fill-rule="evenodd"/>
        <path id="Path_292" data-name="Path 292" d="M743.6,798.018a1.248,1.248,0,0,0,1.092.364,1.638,1.638,0,0,0,1.092-2.392,1.378,1.378,0,0,0-1.352-.624,1.456,1.456,0,0,0-1.118.962A1.586,1.586,0,0,0,743.6,798.018Z" transform="translate(-533.312 -533.468)" fill="#000001" fill-rule="evenodd"/>
        <path id="Path_293" data-name="Path 293" d="M689.624,813.02a1,1,0,0,0,1.924-.52C691.288,810.94,689,811.2,689.624,813.02Z" transform="translate(-533.312 -533.468)" fill="#000001" fill-rule="evenodd"/>
        <path id="Path_294" data-name="Path 294" d="M738.712,800.358a1.17,1.17,0,0,0,1.846-1.352C739.726,797.68,737.256,798.928,738.712,800.358Z" transform="translate(-533.312 -533.468)" fill="#000001" fill-rule="evenodd"/>
        <path id="Path_295" data-name="Path 295" d="M733.746,802.7a1.326,1.326,0,0,0,2.184-1.456C735.046,799.708,732.186,801.008,733.746,802.7Z" transform="translate(-533.312 -533.468)" fill="#000001" fill-rule="evenodd"/>
        <path id="Path_296" data-name="Path 296" d="M723.892,805.3a2.392,2.392,0,0,0-4.212,2.184C720.9,810.524,726.518,808.6,723.892,805.3Z" transform="translate(-533.312 -533.468)" fill="#000001" fill-rule="evenodd"/>
        <path id="Path_297" data-name="Path 297" d="M730.314,803.062a1.95,1.95,0,0,0-3.276,1.95C728.156,807.4,732.576,805.61,730.314,803.062Z" transform="translate(-533.312 -533.468)" fill="#000001" fill-rule="evenodd"/>
        <path id="Path_298" data-name="Path 298" d="M754.884,790.92a1.508,1.508,0,0,0,2.08-2.106C755.638,787.306,752.8,789.386,754.884,790.92Z" transform="translate(-533.312 -533.468)" fill="#000001" fill-rule="evenodd"/>
        <path id="Path_299" data-name="Path 299" d="M748.462,794.352a2.6,2.6,0,0,0,.988.832,1.924,1.924,0,0,0,2.6-1.378,2,2,0,0,0-1.846-2.21,2.132,2.132,0,0,0-1.248.7,1.95,1.95,0,0,0-.65,1.612A1.379,1.379,0,0,0,748.462,794.352Z" transform="translate(-533.312 -533.468)" fill="#000001" fill-rule="evenodd"/>
        <path id="Path_300" data-name="Path 300" d="M701.272,811.876a1.43,1.43,0,0,0,2.6-.884C703.43,809.146,700.128,809.692,701.272,811.876Z" transform="translate(-533.312 -533.468)" fill="#000001" fill-rule="evenodd"/>
        <path id="Path_301" data-name="Path 301" d="M706.888,810.368a1.534,1.534,0,0,0,2.86.676C710.814,808.756,706.29,807.352,706.888,810.368Z" transform="translate(-533.312 -533.468)" fill="#000001" fill-rule="evenodd"/>
        <path id="Path_302" data-name="Path 302" d="M696.41,810.836a1.274,1.274,0,0,0-.52,2.34C697.762,814.112,698.828,810.316,696.41,810.836Z" transform="translate(-533.312 -533.468)" fill="#000001" fill-rule="evenodd"/>
        <path id="Path_303" data-name="Path 303" d="M777.686,770.51a2.08,2.08,0,0,0,2.08-3.562C777.4,765.414,774.332,769.184,777.686,770.51Z" transform="translate(-533.312 -533.468)" fill="#000001" fill-rule="evenodd"/>
        <path id="Path_304" data-name="Path 304" d="M795.6,743.08a1.274,1.274,0,0,0,1.092-.338,1.638,1.638,0,0,0-.494-2.6,1.378,1.378,0,0,0-1.482.286,1.508,1.508,0,0,0-.338,1.43,1.586,1.586,0,0,0,1.222,1.222Z" transform="translate(-533.312 -533.468)" fill="#000001" fill-rule="evenodd"/>
        <path id="Path_305" data-name="Path 305" d="M760.4,786.682a1.021,1.021,0,1,0,1.4-1.482C760.6,784.056,758.758,785.538,760.4,786.682Z" transform="translate(-533.312 -533.468)" fill="#000001" fill-rule="evenodd"/>
        <path id="Path_306" data-name="Path 306" d="M793,747.838a1.17,1.17,0,0,0,.7-2.184C792.168,745.056,790.92,747.526,793,747.838Z" transform="translate(-533.312 -533.468)" fill="#000001" fill-rule="evenodd"/>
        <path id="Path_307" data-name="Path 307" d="M790.244,752.648a1.326,1.326,0,0,0,.91-2.47C789.542,749.45,787.982,752.18,790.244,752.648Z" transform="translate(-533.312 -533.468)" fill="#000001" fill-rule="evenodd"/>
        <path id="Path_308" data-name="Path 308" d="M783.77,760.474a2.392,2.392,0,0,0-2.132,4.238C784.42,766.48,787.8,761.644,783.77,760.474Z" transform="translate(-533.312 -533.468)" fill="#000001" fill-rule="evenodd"/>
        <path id="Path_309" data-name="Path 309" d="M787.67,754.91a1.924,1.924,0,0,0-1.508,3.51C788.476,759.694,790.972,755.664,787.67,754.91Z" transform="translate(-533.312 -533.468)" fill="#000001" fill-rule="evenodd"/>
        <path id="Path_310" data-name="Path 310" d="M800.618,730.756a1.508,1.508,0,0,0,.494-2.912C799.136,727.376,797.992,730.6,800.618,730.756Z" transform="translate(-533.312 -533.468)" fill="#000001" fill-rule="evenodd"/>
        <path id="Path_311" data-name="Path 311" d="M797.342,737.256a2.6,2.6,0,0,0,1.274,0,1.924,1.924,0,0,0,1.274-2.6,2,2,0,0,0-2.782-.754,2.08,2.08,0,0,0-.624,1.3,1.976,1.976,0,0,0,.416,1.69,1.4,1.4,0,0,0,.442.364Z" transform="translate(-533.312 -533.468)" fill="#000001" fill-rule="evenodd"/>
        <path id="Path_312" data-name="Path 312" d="M769.288,779.09a1.4,1.4,0,0,0,1.638-2.262C769.6,775.606,767,777.946,769.288,779.09Z" transform="translate(-533.312 -533.468)" fill="#000001" fill-rule="evenodd"/>
        <path id="Path_313" data-name="Path 313" d="M772.98,774.566a1.534,1.534,0,0,0,2.6-1.118C775.242,770.978,770.744,772.486,772.98,774.566Z" transform="translate(-533.312 -533.468)" fill="#000001" fill-rule="evenodd"/>
        <path id="Path_314" data-name="Path 314" d="M764.712,781.04a1.274,1.274,0,0,0,.91,2.236C767.7,782.938,766.376,779.22,764.712,781.04Z" transform="translate(-533.312 -533.468)" fill="#000001" fill-rule="evenodd"/>
        <path id="Path_315" data-name="Path 315" d="M808.418,701.194a2.08,2.08,0,0,0,0-4.108C805.636,696.8,804.83,701.74,808.418,701.194Z" transform="translate(-533.312 -533.468)" fill="#000001" fill-rule="evenodd"/>
        <path id="Path_316" data-name="Path 316" d="M811.694,668.642a1.274,1.274,0,0,0,.858-.754,1.612,1.612,0,0,0-1.508-2.158,1.378,1.378,0,0,0-1.222.858,1.456,1.456,0,0,0,.286,1.456,1.586,1.586,0,0,0,1.586.6Z" transform="translate(-533.312 -533.468)" fill="#000001" fill-rule="evenodd"/>
        <path id="Path_317" data-name="Path 317" d="M802.672,724.126a.992.992,0,0,0,.182-1.976C801.346,721.838,800.8,724.126,802.672,724.126Z" transform="translate(-533.312 -533.468)" fill="#000001" fill-rule="evenodd"/>
        <path id="Path_318" data-name="Path 318" d="M811.356,674.024a1.17,1.17,0,0,0-.286-2.262C809.51,671.84,809.406,674.6,811.356,674.024Z" transform="translate(-533.312 -533.468)" fill="#000001" fill-rule="evenodd"/>
        <path id="Path_319" data-name="Path 319" d="M811.07,679.51a1.326,1.326,0,0,0-.26-2.6C809.016,676.936,808.834,680.082,811.07,679.51Z" transform="translate(-533.312 -533.468)" fill="#000001" fill-rule="evenodd"/>
        <path id="Path_320" data-name="Path 320" d="M808.86,689.416a2.418,2.418,0,0,0,.13,4.732C812.266,694.356,812.994,688.558,808.86,689.416Z" transform="translate(-533.312 -533.468)" fill="#000001" fill-rule="evenodd"/>
        <path id="Path_321" data-name="Path 321" d="M809.77,682.682a1.95,1.95,0,0,0,.26,3.822C812.656,686.556,813.072,681.876,809.77,682.682Z" transform="translate(-533.312 -533.468)" fill="#000001" fill-rule="evenodd"/>
        <path id="Path_322" data-name="Path 322" d="M811.382,655.2a1.508,1.508,0,0,0-.7-2.886C808.6,652.756,808.99,656.292,811.382,655.2Z" transform="translate(-533.312 -533.468)" fill="#000001" fill-rule="evenodd"/>
        <path id="Path_323" data-name="Path 323" d="M810.992,662.558a2.6,2.6,0,0,0,1.222-.416,1.924,1.924,0,0,0,.13-2.86,2,2,0,0,0-2.86.442,2.157,2.157,0,0,0,0,1.43,1.976,1.976,0,0,0,1.066,1.378,1.378,1.378,0,0,0,.442.026Z" transform="translate(-533.312 -533.468)" fill="#000001" fill-rule="evenodd"/>
        <path id="Path_324" data-name="Path 324" d="M805.74,712.842a1.4,1.4,0,0,0,.156-2.782C804.024,709.8,803.4,713.1,805.74,712.842Z" transform="translate(-533.312 -533.468)" fill="#000001" fill-rule="evenodd"/>
        <path id="Path_325" data-name="Path 325" d="M806.468,707.2a1.534,1.534,0,0,0,1.742-2.34C806.52,702.806,803.4,706.446,806.468,707.2Z" transform="translate(-533.312 -533.468)" fill="#000001" fill-rule="evenodd"/>
        <path id="Path_326" data-name="Path 326" d="M802.984,717a1.274,1.274,0,0,0,2,1.326C806.52,716.9,803.4,714.558,802.984,717Z" transform="translate(-533.312 -533.468)" fill="#000001" fill-rule="evenodd"/>
        <path id="Path_327" data-name="Path 327" d="M806.52,625.092a2.08,2.08,0,0,0-1.846-3.692C802.074,622.518,803.556,627.172,806.52,625.092Z" transform="translate(-533.312 -533.468)" fill="#000001" fill-rule="evenodd"/>
        <path id="Path_328" data-name="Path 328" d="M793,595.4a1.248,1.248,0,0,0,.286-1.118,1.612,1.612,0,0,0-2.47-.91,1.378,1.378,0,0,0-.52,1.4,1.456,1.456,0,0,0,1.04,1.04A1.586,1.586,0,0,0,793,595.4Z" transform="translate(-533.312 -533.468)" fill="#000001" fill-rule="evenodd"/>
        <path id="Path_329" data-name="Path 329" d="M810.706,648.388a1,1,0,1,0-.6-1.9C808.6,646.8,808.886,649.168,810.706,648.388Z" transform="translate(-533.312 -533.468)" fill="#000001" fill-rule="evenodd"/>
        <path id="Path_330" data-name="Path 330" d="M795.6,600.028a1.17,1.17,0,0,0-1.482-1.742C793,599.2,794.326,601.562,795.6,600.028Z" transform="translate(-533.312 -533.468)" fill="#000001" fill-rule="evenodd"/>
        <path id="Path_331" data-name="Path 331" d="M798.2,604.838a1.326,1.326,0,0,0-1.612-2.08C795.236,603.72,796.718,606.5,798.2,604.838Z" transform="translate(-533.312 -533.468)" fill="#000001" fill-rule="evenodd"/>
        <path id="Path_332" data-name="Path 332" d="M801.45,614.51a2.392,2.392,0,0,0,2.392,4.082C806.806,617.24,804.622,611.7,801.45,614.51Z" transform="translate(-533.312 -533.468)" fill="#000001" fill-rule="evenodd"/>
        <path id="Path_333" data-name="Path 333" d="M798.876,608.218a1.924,1.924,0,0,0,2.132,3.172C803.4,610.142,801.294,605.8,798.876,608.218Z" transform="translate(-533.312 -533.468)" fill="#000001" fill-rule="evenodd"/>
        <path id="Path_334" data-name="Path 334" d="M784.862,584.688a1.508,1.508,0,0,0-2.314-1.846C781.2,584.3,783.562,586.924,784.862,584.688Z" transform="translate(-533.312 -533.468)" fill="#000001" fill-rule="evenodd"/>
        <path id="Path_335" data-name="Path 335" d="M788.892,590.772a2.6,2.6,0,0,0,.728-1.066,1.924,1.924,0,0,0-1.586-2.418,2,2,0,0,0-2.054,2.054,2.081,2.081,0,0,0,.806,1.2,1.976,1.976,0,0,0,1.638.494A1.4,1.4,0,0,0,788.892,590.772Z" transform="translate(-533.312 -533.468)" fill="#000001" fill-rule="evenodd"/>
        <path id="Path_336" data-name="Path 336" d="M809.094,636.818a1.43,1.43,0,0,0-.988-2.6C806.26,634.764,806.962,638.04,809.094,636.818Z" transform="translate(-533.312 -533.468)" fill="#000001" fill-rule="evenodd"/>
        <path id="Path_337" data-name="Path 337" d="M807.326,631.254a1.534,1.534,0,0,0,.546-2.86C805.558,627.406,804.362,631.982,807.326,631.254Z" transform="translate(-533.312 -533.468)" fill="#000001" fill-rule="evenodd"/>
        <path id="Path_338" data-name="Path 338" d="M808.236,641.706a1.274,1.274,0,0,0,2.366.442C811.46,640.2,807.612,639.314,808.236,641.706Z" transform="translate(-533.312 -533.468)" fill="#000001" fill-rule="evenodd"/>
        <path id="Path_339" data-name="Path 339" d="M761.8,564.694a2.08,2.08,0,0,0-3.848-1.482C756.6,565.734,760.916,568.2,761.8,564.694Z" transform="translate(-533.312 -533.468)" fill="#000001" fill-rule="evenodd"/>
        <path id="Path_340" data-name="Path 340" d="M731.718,551.694a1.274,1.274,0,0,0-.52-1.04,1.638,1.638,0,0,0-2.47.91,1.378,1.378,0,0,0,.52,1.4,1.482,1.482,0,0,0,1.482,0A1.56,1.56,0,0,0,731.718,551.694Z" transform="translate(-533.312 -533.468)" fill="#000001" fill-rule="evenodd"/>
        <path id="Path_341" data-name="Path 341" d="M780,579.644a1,1,0,0,0-1.664-1.092C777.4,579.8,779.142,581.386,780,579.644Z" transform="translate(-533.312 -533.468)" fill="#000001" fill-rule="evenodd"/>
        <path id="Path_342" data-name="Path 342" d="M736.84,553.436a1.17,1.17,0,0,0-2.262-.338C734.24,554.632,736.866,555.438,736.84,553.436Z" transform="translate(-533.312 -533.468)" fill="#000001" fill-rule="evenodd"/>
        <path id="Path_343" data-name="Path 343" d="M742.04,555.23a1.326,1.326,0,0,0-2.6-.494C739,556.4,741.962,557.544,742.04,555.23Z" transform="translate(-533.312 -533.468)" fill="#000001" fill-rule="evenodd"/>
        <path id="Path_344" data-name="Path 344" d="M750.828,560.3a2.418,2.418,0,0,0,4.524,1.4C756.6,558.662,751.4,556.088,750.828,560.3Z" transform="translate(-533.312 -533.468)" fill="#000001" fill-rule="evenodd"/>
        <path id="Path_345" data-name="Path 345" d="M744.718,557.388a1.924,1.924,0,0,0,3.718.91C749.294,555.8,744.874,554.008,744.718,557.388Z" transform="translate(-533.312 -533.468)" fill="#000001" fill-rule="evenodd"/>
        <path id="Path_346" data-name="Path 346" d="M718.718,548.6a1.508,1.508,0,0,0-2.964,0C715.6,550.628,719.108,551.2,718.718,548.6Z" transform="translate(-533.312 -533.468)" fill="#000001" fill-rule="evenodd"/>
        <path id="Path_347" data-name="Path 347" d="M725.686,550.836a2.6,2.6,0,0,0,0-1.3,1.924,1.924,0,0,0-2.886-.936,2,2,0,0,0-.286,2.886,2.08,2.08,0,0,0,1.378.416,2,2,0,0,0,1.508-.7A1.376,1.376,0,0,0,725.686,550.836Z" transform="translate(-533.312 -533.468)" fill="#000001" fill-rule="evenodd"/>
        <path id="Path_348" data-name="Path 348" d="M771.42,571.766a1.459,1.459,0,0,0-2.6-1.326C767.962,572,770.614,574.106,771.42,571.766Z" transform="translate(-533.312 -533.468)" fill="#000001" fill-rule="evenodd"/>
        <path id="Path_349" data-name="Path 349" d="M766.428,568.75a1.534,1.534,0,0,0-1.482-2.6C762.554,567.034,764.712,571.246,766.428,568.75Z" transform="translate(-533.312 -533.468)" fill="#000001" fill-rule="evenodd"/>
        <path id="Path_350" data-name="Path 350" d="M773.942,576.056a1.274,1.274,0,0,0,2.106-1.2C775.45,572.832,771.94,574.6,773.942,576.056Z" transform="translate(-533.312 -533.468)" fill="#000001" fill-rule="evenodd"/>
        <path id="Path_351" data-name="Path 351" d="M688.3,545.532a2.08,2.08,0,0,0-4.056.676C684.5,549.016,689.442,548.99,688.3,545.532Z" transform="translate(-533.312 -533.468)" fill="#000001" fill-rule="evenodd"/>
        <path id="Path_352" data-name="Path 352" d="M655.72,548.418a1.274,1.274,0,0,0-.936-.676,1.638,1.638,0,0,0-1.768,1.95,1.378,1.378,0,0,0,1.118,1.014,1.456,1.456,0,0,0,1.352-.572,1.586,1.586,0,0,0,.234-1.716Z" transform="translate(-533.312 -533.468)" fill="#000001" fill-rule="evenodd"/>
        <path id="Path_353" data-name="Path 353" d="M711.88,547.612a.988.988,0,1,0-1.976,0C709.8,549.3,712.166,549.588,711.88,547.612Z" transform="translate(-533.312 -533.468)" fill="#000001" fill-rule="evenodd"/>
        <path id="Path_354" data-name="Path 354" d="M661.05,547.638a1.17,1.17,0,0,0-2.158.754C659.308,549.9,662.012,549.406,661.05,547.638Z" transform="translate(-533.312 -533.468)" fill="#000001" fill-rule="evenodd"/>
        <path id="Path_355" data-name="Path 355" d="M666.484,546.806a1.357,1.357,0,1,0-2.6.78C664.378,549.328,667.5,548.886,666.484,546.806Z" transform="translate(-533.312 -533.468)" fill="#000001" fill-rule="evenodd"/>
        <path id="Path_356" data-name="Path 356" d="M676.65,547.092a2.392,2.392,0,0,0,4.628-.962C680.94,542.88,675.038,543.192,676.65,547.092Z" transform="translate(-533.312 -533.468)" fill="#000001" fill-rule="evenodd"/>
        <path id="Path_357" data-name="Path 357" d="M669.864,547.456a1.924,1.924,0,0,0,3.692-.962C673.14,543.894,668.434,544.362,669.864,547.456Z" transform="translate(-533.312 -533.468)" fill="#000001" fill-rule="evenodd"/>
        <path id="Path_358" data-name="Path 358" d="M642.746,551.616a1.508,1.508,0,0,0-2.6,1.326C640.874,554.788,644.254,553.8,642.746,551.616Z" transform="translate(-533.312 -533.468)" fill="#000001" fill-rule="evenodd"/>
        <path id="Path_359" data-name="Path 359" d="M650,550.394a2.6,2.6,0,0,0-.676-1.092,1.924,1.924,0,0,0-2.834.494,2,2,0,0,0,1.04,2.6,2.132,2.132,0,0,0,1.4-.26,2,2,0,0,0,1.118-1.326A1.4,1.4,0,0,0,650,550.394Z" transform="translate(-533.312 -533.468)" fill="#000001" fill-rule="evenodd"/>
        <path id="Path_360" data-name="Path 360" d="M700.258,546.26a1.4,1.4,0,0,0-2.782.286C697.528,548.444,700.882,548.6,700.258,546.26Z" transform="translate(-533.312 -533.468)" fill="#000001" fill-rule="evenodd"/>
        <path id="Path_361" data-name="Path 361" d="M694.434,546.494a1.534,1.534,0,0,0-2.6-1.326C690.222,547.118,694.2,549.536,694.434,546.494Z" transform="translate(-533.312 -533.468)" fill="#000001" fill-rule="evenodd"/>
        <path id="Path_362" data-name="Path 362" d="M704.782,548.34a1.274,1.274,0,0,0,1.014-2.184C704.158,544.856,702.286,548.34,704.782,548.34Z" transform="translate(-533.312 -533.468)" fill="#000001" fill-rule="evenodd"/>
        <path id="Path_363" data-name="Path 363" d="M614.25,562.692a2.091,2.091,0,1,0-3.276,2.6C612.508,567.528,616.85,565.214,614.25,562.692Z" transform="translate(-533.312 -533.468)" fill="#000001" fill-rule="evenodd"/>
        <path id="Path_364" data-name="Path 364" d="M586.768,580.424a1.274,1.274,0,0,0-1.144-.182,1.638,1.638,0,0,0-.7,2.6,1.378,1.378,0,0,0,1.456.39,1.482,1.482,0,0,0,.962-1.144A1.586,1.586,0,0,0,586.768,580.424Z" transform="translate(-533.312 -533.468)" fill="#000001" fill-rule="evenodd"/>
        <path id="Path_365" data-name="Path 365" d="M636.168,553.8a.99.99,0,1,0-1.716.988C635.076,556.218,637.312,555.412,636.168,553.8Z" transform="translate(-533.312 -533.468)" fill="#000001" fill-rule="evenodd"/>
        <path id="Path_366" data-name="Path 366" d="M591.136,577.2a1.17,1.17,0,0,0-1.586,1.664C590.59,580.086,592.8,578.422,591.136,577.2Z" transform="translate(-533.312 -533.468)" fill="#000001" fill-rule="evenodd"/>
        <path id="Path_367" data-name="Path 367" d="M595.582,574.054a1.326,1.326,0,0,0-1.872,1.846C594.854,577.2,597.428,575.432,595.582,574.054Z" transform="translate(-533.312 -533.468)" fill="#000001" fill-rule="evenodd"/>
        <path id="Path_368" data-name="Path 368" d="M604.708,569.556a2.418,2.418,0,0,0,3.64-3.042C606.5,563.81,601.458,566.8,604.708,569.556Z" transform="translate(-533.312 -533.468)" fill="#000001" fill-rule="evenodd"/>
        <path id="Path_369" data-name="Path 369" d="M598.884,573.04a1.924,1.924,0,0,0,2.808-2.6C600.106,568.36,596.18,570.986,598.884,573.04Z" transform="translate(-533.312 -533.468)" fill="#000001" fill-rule="evenodd"/>
        <path id="Path_370" data-name="Path 370" d="M576.654,589.16a1.508,1.508,0,0,0-1.768,2.366C576.394,592.8,578.942,590.382,576.654,589.16Z" transform="translate(-533.312 -533.468)" fill="#000001" fill-rule="evenodd"/>
        <path id="Path_371" data-name="Path 371" d="M582.4,584.818a2.6,2.6,0,0,0-1.118-.676,1.924,1.924,0,0,0-2.288,1.716,2,2,0,0,0,2.158,1.924,2.106,2.106,0,0,0,1.144-.884,2,2,0,0,0,.39-1.69A1.458,1.458,0,0,0,582.4,584.818Z" transform="translate(-533.312 -533.468)" fill="#000001" fill-rule="evenodd"/>
        <path id="Path_372" data-name="Path 372" d="M625.2,557.856a1.4,1.4,0,0,0-2.34,1.534C623.766,561.028,626.834,559.676,625.2,557.856Z" transform="translate(-533.312 -533.468)" fill="#000001" fill-rule="evenodd"/>
        <path id="Path_373" data-name="Path 373" d="M620.126,560.716a1.534,1.534,0,0,0-2.912,0C616.694,563.212,621.4,563.472,620.126,560.716Z" transform="translate(-533.312 -533.468)" fill="#000001" fill-rule="evenodd"/>
        <path id="Path_374" data-name="Path 374" d="M630.162,557.648a1.274,1.274,0,0,0,0-2.418C628.03,554.814,627.952,558.766,630.162,557.648Z" transform="translate(-533.312 -533.468)" fill="#000001" fill-rule="evenodd"/>
        <path id="Path_375" data-name="Path 375" d="M556.4,612.066a2.08,2.08,0,0,0-1.716,3.744C557.128,617.136,559.858,613.054,556.4,612.066Z" transform="translate(-533.312 -533.468)" fill="#000001" fill-rule="evenodd"/>
        <path id="Path_376" data-name="Path 376" d="M541.216,641.03a1.274,1.274,0,0,0-1.066.442,1.638,1.638,0,0,0,.754,2.6,1.378,1.378,0,0,0,1.43-.416,1.482,1.482,0,0,0,.208-1.456,1.586,1.586,0,0,0-1.326-1.17Z" transform="translate(-533.312 -533.468)" fill="#000001" fill-rule="evenodd"/>
        <path id="Path_377" data-name="Path 377" d="M571.766,594.074a.988.988,0,0,0-1.066,1.664C572,596.726,573.534,595.01,571.766,594.074Z" transform="translate(-533.312 -533.468)" fill="#000001" fill-rule="evenodd"/>
        <path id="Path_378" data-name="Path 378" d="M543.4,636.064a1.17,1.17,0,0,0-.494,2.236C544.336,638.742,545.35,636.194,543.4,636.064Z" transform="translate(-533.312 -533.468)" fill="#000001" fill-rule="evenodd"/>
        <path id="Path_379" data-name="Path 379" d="M545.532,631.046a1.343,1.343,0,1,0-.676,2.6C546.52,634.14,547.82,631.28,545.532,631.046Z" transform="translate(-533.312 -533.468)" fill="#000001" fill-rule="evenodd"/>
        <path id="Path_380" data-name="Path 380" d="M551.2,622.648a2.418,2.418,0,0,0,1.716-4.42C550.082,616.746,547.118,621.868,551.2,622.648Z" transform="translate(-533.312 -533.468)" fill="#000001" fill-rule="evenodd"/>
        <path id="Path_381" data-name="Path 381" d="M547.9,628.524a1.95,1.95,0,0,0,1.2-3.64C546.676,623.844,544.518,628.082,547.9,628.524Z" transform="translate(-533.312 -533.468)" fill="#000001" fill-rule="evenodd"/>
        <path id="Path_382" data-name="Path 382" d="M537.394,653.848a1.508,1.508,0,0,0-.156,2.964C539.24,657.02,539.968,653.588,537.394,653.848Z" transform="translate(-533.312 -533.468)" fill="#000001" fill-rule="evenodd"/>
        <path id="Path_383" data-name="Path 383" d="M539.942,647.01a2.6,2.6,0,0,0-1.3,0,1.924,1.924,0,0,0-1.014,2.6,2,2,0,0,0,2.86.442,2.106,2.106,0,0,0,.468-1.352,1.976,1.976,0,0,0-.572-1.638,1.379,1.379,0,0,0-.442-.052Z" transform="translate(-533.312 -533.468)" fill="#000001" fill-rule="evenodd"/>
        <path id="Path_384" data-name="Path 384" d="M563.836,602.68a1.43,1.43,0,0,0-1.378,2.444C564.044,606.164,566.15,603.564,563.836,602.68Z" transform="translate(-533.312 -533.468)" fill="#000001" fill-rule="evenodd"/>
        <path id="Path_385" data-name="Path 385" d="M560.664,607.568a1.534,1.534,0,0,0-2.6,1.378C558.792,611.364,563.082,609.414,560.664,607.568Z" transform="translate(-533.312 -533.468)" fill="#000001" fill-rule="evenodd"/>
        <path id="Path_386" data-name="Path 386" d="M568.178,600.236a1.274,1.274,0,0,0-1.17-2.106C564.98,598.676,566.8,602.238,568.178,600.236Z" transform="translate(-533.312 -533.468)" fill="#000001" fill-rule="evenodd"/>
        <path id="Path_387" data-name="Path 387" d="M534.586,684.294a2.08,2.08,0,0,0,1.04,4C538.356,687.752,537.94,682.89,534.586,684.294Z" transform="translate(-533.312 -533.468)" fill="#000001" fill-rule="evenodd"/>
        <path id="Path_388" data-name="Path 388" d="M542.022,716.144a1.274,1.274,0,0,0-.494,1.04,1.612,1.612,0,0,0,2.236,1.378,1.378,1.378,0,0,0,.78-1.274,1.456,1.456,0,0,0-.832-1.222A1.586,1.586,0,0,0,542.022,716.144Z" transform="translate(-533.312 -533.468)" fill="#000001" fill-rule="evenodd"/>
        <path id="Path_389" data-name="Path 389" d="M536.12,660.66a.988.988,0,1,0,0,1.976C537.732,662.766,538.2,660.4,536.12,660.66Z" transform="translate(-533.312 -533.468)" fill="#000001" fill-rule="evenodd"/>
        <path id="Path_390" data-name="Path 390" d="M540.306,711.022a1.17,1.17,0,0,0,1.118,2C542.828,712.4,541.892,709.8,540.306,711.022Z" transform="translate(-533.312 -533.468)" fill="#000001" fill-rule="evenodd"/>
        <path id="Path_391" data-name="Path 391" d="M538.59,705.8a1.326,1.326,0,0,0,1.17,2.34C541.4,707.46,540.488,704.47,538.59,705.8Z" transform="translate(-533.312 -533.468)" fill="#000001" fill-rule="evenodd"/>
        <path id="Path_392" data-name="Path 392" d="M537.394,695.708a2.392,2.392,0,0,0-1.534-4.472C532.662,691.938,533.7,697.814,537.394,695.708Z" transform="translate(-533.312 -533.468)" fill="#000001" fill-rule="evenodd"/>
        <path id="Path_393" data-name="Path 393" d="M538.694,702.364a1.924,1.924,0,0,0-1.482-3.51C534.69,699.608,535.86,704.236,538.694,702.364Z" transform="translate(-533.312 -533.468)" fill="#000001" fill-rule="evenodd"/>
        <path id="Path_394" data-name="Path 394" d="M547.742,728.208a1.508,1.508,0,0,0,1.846,2.314C551.2,729.378,549.51,726.31,547.742,728.208Z" transform="translate(-533.312 -533.468)" fill="#000001" fill-rule="evenodd"/>
        <path id="Path_395" data-name="Path 395" d="M545.064,721.422a2.6,2.6,0,0,0-.936.884,1.924,1.924,0,0,0,1.066,2.6,2,2,0,0,0,2.418-1.586,2.132,2.132,0,0,0-.546-1.326,2,2,0,0,0-1.534-.832A1.459,1.459,0,0,0,545.064,721.422Z" transform="translate(-533.312 -533.468)" fill="#000001" fill-rule="evenodd"/>
        <path id="Path_396" data-name="Path 396" d="M534.742,672.282a1.43,1.43,0,0,0,.364,2.782C536.978,674.934,537.108,671.606,534.742,672.282Z" transform="translate(-533.312 -533.468)" fill="#000001" fill-rule="evenodd"/>
        <path id="Path_397" data-name="Path 397" d="M535.158,678.106a1.534,1.534,0,0,0-1.17,2.6C536.016,682.24,538.2,678.054,535.158,678.106Z" transform="translate(-533.312 -533.468)" fill="#000001" fill-rule="evenodd"/>
        <path id="Path_398" data-name="Path 398" d="M536.77,667.758a1.274,1.274,0,0,0-2.184-1.014C533.26,668.408,536.77,670.228,536.77,667.758Z" transform="translate(-533.312 -533.468)" fill="#000001" fill-rule="evenodd"/>
      </g>
    </g>
  </g>
</svg>
